<svg width="363" height="683" viewBox="0 0 363 683" fill="none" xmlns="http://www.w3.org/2000/svg">
<g clip-path="url(#clip0_1_172)">
<g clip-path="url(#clip1_1_172)">
<path d="M-9.34155 776.158C257.87 776.158 474.487 559.54 474.487 292.329C474.487 25.1176 257.87 -191.5 -9.34155 -191.5C-276.553 -191.5 -493.171 25.1176 -493.171 292.329C-493.171 559.54 -276.553 776.158 -9.34155 776.158Z" fill="url(#paint0_radial_1_172)" stroke="url(#paint1_linear_1_172)"/>
<path d="M353.485 891.5C620.696 891.5 837.314 674.882 837.314 407.671C837.314 140.46 620.696 -76.158 353.485 -76.158C86.2736 -76.158 -130.344 140.46 -130.344 407.671C-130.344 674.882 86.2736 891.5 353.485 891.5Z" fill="#CBD8D3" stroke="url(#paint2_radial_1_172)"/>
</g>
</g>
<defs>
<radialGradient id="paint0_radial_1_172" cx="0" cy="0" r="1" gradientUnits="userSpaceOnUse" gradientTransform="translate(-9.34155 292.329) rotate(90) scale(1622.69 1622.69)">
<stop stop-color="white"/>
<stop offset="1" stop-color="#5A6795"/>
</radialGradient>
<linearGradient id="paint1_linear_1_172" x1="497.944" y1="244.176" x2="-624.131" y2="492.779" gradientUnits="userSpaceOnUse">
<stop stop-color="#B5C2FB"/>
<stop offset="1" stop-color="#B5C2FB" stop-opacity="0"/>
</linearGradient>
<radialGradient id="paint2_radial_1_172" cx="0" cy="0" r="1" gradientUnits="userSpaceOnUse" gradientTransform="translate(353.485 407.671) rotate(89.968) scale(1003.37)">
<stop offset="0.046875" stop-color="#B5C2FB" stop-opacity="0"/>
<stop offset="1" stop-color="#B5C2FB"/>
</radialGradient>
<clipPath id="clip0_1_172">
<rect width="362.66" height="683.36" fill="white" transform="translate(0.329956)"/>
</clipPath>
<clipPath id="clip1_1_172">
<rect width="488" height="797" fill="white" transform="translate(1.32996 1)"/>
</clipPath>
</defs>
</svg>
