<svg width="340" height="345" viewBox="0 0 340 345" fill="none" xmlns="http://www.w3.org/2000/svg">
<path d="M294.658 4.16222L290.533 0.019043L285.482 25.8808L253.718 94.0635L257.256 98.2067L279.201 98.1878V193.462C279.201 255.837 231.205 307.712 169 312.555L0.019043 321.919L0.340656 324.965L70.3396 345L194.332 334.179C265.069 328.068 319.365 268.872 319.365 197.87V97.5256L339.154 96.3905L294.658 4.16222Z" fill="url(#paint0_linear_86_1530)"/>
<path d="M290.533 0.019043L253.718 94.0635L275.323 94.0446V189.319C275.323 251.693 228.064 303.568 166.843 308.411L0 321.919L70.7367 340.649L191.778 330.035C261.399 323.925 314.844 264.728 314.844 193.727V93.3824L334.311 92.2473L290.533 0.019043Z" fill="url(#paint1_linear_86_1530)"/>
<g opacity="0.3">
<path d="M303.928 198.948C298.214 173.389 284.706 161.433 285.274 130.444C285.728 106.152 294.374 95.0093 299.595 75.5231C303.133 62.3369 305.138 45.2533 301.752 23.6294L290.533 0L253.718 94.0445L275.323 94.0256V189.3C275.323 251.674 228.064 303.549 166.843 308.392L0 321.9L70.7367 340.63L191.778 330.016C241.875 325.608 283.59 293.731 303.057 249.745C306.841 233.361 307.73 215.937 303.928 198.948Z" fill="url(#paint2_linear_86_1530)"/>
</g>
<path d="M143.649 315.373C142.855 316.092 142.817 317.776 142.779 318.892C142.76 319.384 142.76 319.63 142.817 319.8C143.29 321.03 145.749 321.03 149.609 321.181C155.7 321.427 157.535 321.806 157.971 320.86C158.368 319.989 157.195 318.665 157.081 318.514C156.381 317.738 155.568 317.492 153.979 317.076C151.065 316.3 149.098 315.903 148.511 315.789C144.784 315.033 144.16 314.9 143.649 315.373Z" fill="url(#paint3_linear_86_1530)"/>
<path d="M147.925 309.3L148.171 316.243C147.982 316.565 145.882 317.454 144.292 316.508L143.101 309.622L147.925 309.3Z" fill="url(#paint4_linear_86_1530)"/>
<path d="M195.032 314.409C193.992 315.449 193.651 317.455 194.465 318.495C195.259 319.517 196.565 318.855 200.178 319.157C204.037 319.479 205.002 320.444 207.67 319.857C208.748 319.611 210.659 319.006 210.659 318.249C210.659 317.719 209.732 317.398 206.591 316.149C202.146 314.39 202.164 314.314 201.219 314.106C198.816 313.576 196.413 313.047 195.032 314.409Z" fill="url(#paint5_linear_86_1530)"/>
<path d="M197.851 308.241L199.44 314.805C199.27 315.146 197.246 316.187 195.581 315.373L193.027 308.96L197.851 308.241Z" fill="url(#paint6_linear_86_1530)"/>
<path d="M188.165 166.011C187.275 187.71 187.465 212.172 189.602 238.847C191.721 265.22 195.373 289.133 199.629 310.227C197.113 310.757 194.616 311.287 192.1 311.835C186.14 305.649 178.705 296.001 175.584 282.776C173.635 274.566 174.657 270.46 173.673 260.434C172.122 244.466 167.714 235.915 163.381 222.899C159.484 211.188 155.057 194.067 153.411 171.421C164.97 169.605 176.568 167.808 188.165 166.011Z" fill="url(#paint7_linear_86_1530)"/>
<path opacity="0.3" d="M184.683 267.415C181.921 256.461 176.586 253.566 176.397 243.237C176.265 235.934 178.894 235.329 178.724 228.329C178.459 217.715 172.235 212.153 169.113 205.475C165.821 198.419 164.554 187.105 173.446 168.262C166.749 169.303 160.07 170.324 153.373 171.365C155.019 194.029 159.465 211.132 163.343 222.842C167.676 235.877 172.084 244.429 173.635 260.377C174.6 270.404 173.597 274.509 175.546 282.72C178.667 295.944 186.102 305.592 192.062 311.779C192.705 311.646 193.329 311.514 193.972 311.363C187.521 303.663 185.251 296.795 184.664 291.214C183.737 282.19 187.483 278.463 184.683 267.415Z" fill="url(#paint8_linear_86_1530)"/>
<path d="M163.06 164.648C160.071 192.137 157.327 220.175 154.849 248.704C152.995 270.12 151.349 291.271 149.873 312.157C147.338 312.327 144.784 312.516 142.23 312.687C140.036 308.014 137.16 300.881 135.42 291.857C133.301 280.884 134.266 274.49 133.679 263.214C133.017 250.558 131.239 247.72 128.666 231.658C123.444 199.08 120.833 182.791 129.12 173.181C131.825 170.078 140.13 162.34 163.06 164.648Z" fill="url(#paint9_linear_86_1530)"/>
<path d="M171.403 71.4932C178.138 73.5364 186.746 81.4444 191.267 85.7956C201.654 95.8225 221.159 129.63 209.808 141.7C202.07 149.911 188.486 146.468 182.489 138.181C178.081 132.09 180.749 126.546 181.676 115.574C182.678 103.787 178.441 83.147 171.403 71.4932Z" fill="url(#paint10_linear_86_1530)"/>
<path d="M177.078 74.7476C181.713 80.2529 183.359 79.7989 186.973 87.3852C192.421 98.8121 188.41 111.885 187.843 125.979C187.219 141.436 187.824 170.192 195.6 185.043C195.732 185.308 195.808 185.365 195.789 185.743C195.543 201.502 121.098 190.454 121.212 184.703C121.798 156.135 140.414 93.5527 135.798 72.8557C137.898 72.8179 142.041 70.6233 143.725 70.1693C150.952 68.145 157.479 67.8044 164.327 68.7315C166.824 69.072 168.092 69.6396 169.908 70.3395C172.878 71.4936 174.789 73.1773 177.078 74.7476Z" fill="url(#paint11_linear_86_1530)"/>
<path d="M150.593 52.9722C150.687 57.7775 149.117 64.6828 148.493 68.9773C147.868 73.2718 156.665 73.461 159.541 71.4746C162.171 69.6395 160.184 64.6828 157.649 62.072C155.095 59.4613 153.184 55.6397 150.593 52.9722Z" fill="url(#paint12_linear_86_1530)"/>
<path d="M162.416 48.4881C165.954 44.4017 164.989 31.7262 160.581 29.8154C158.444 28.8884 155.852 35.5667 153.771 37.0613C150.99 39.0856 143.063 41.9801 141.89 45.4233C141.001 48.0151 144.141 52.7259 145.371 54.3907C146.752 56.2826 146.79 55.5637 148.322 56.8312C150.441 58.5907 153.241 60.596 155.417 62.5825C155.587 60.8231 155.492 60.842 155.908 58.5339C156.079 57.6447 157.8 53.7475 158.689 52.2151C159.238 51.2313 161.981 48.9989 162.416 48.4881Z" fill="url(#paint13_linear_86_1530)"/>
<path d="M150.876 60.0291C154.357 62.4696 156.344 65.7425 161.792 63.9263C166.673 62.3182 165.822 49.6806 160.752 46.5968C159.068 45.5752 156.836 45.8779 155.019 46.7103C153.941 47.2022 152.882 48.0914 151.822 48.6779C150.838 49.2076 149.911 48.8482 149.117 50.0211C148.114 51.4968 149.363 54.7129 150.271 56.2264C149.684 55.848 149.022 55.2805 148.322 55.167C147.83 55.0913 146.884 54.4102 146.525 55.1481C145.938 56.3778 147.83 58.2885 148.89 59.0453C149.363 59.4047 150.309 59.7642 150.876 60.0291Z" fill="url(#paint14_linear_86_1530)"/>
<path d="M148.663 49.2641C149.4 49.5668 148.36 51.0046 148.7 52.2344C149.381 54.6181 150.763 58.9126 154.376 58.8559C156.514 58.818 158.462 56.6424 160.638 56.1127C161.981 55.7911 163.495 55.6586 164.914 55.8478C166.143 58.3451 166.749 62.4693 164.687 64.418C162.473 66.499 160.752 65.8179 158.046 65.4206C156.23 65.1558 154.111 63.9071 152.787 62.3558C151.406 60.7288 150.309 58.9694 148.927 57.2478C148.171 56.3019 147.225 55.11 146.355 54.1262C146.109 53.8614 145.749 53.4262 145.541 53.0668C146.033 52.4046 147.584 48.829 148.663 49.2641Z" fill="url(#paint15_linear_86_1530)"/>
<path d="M162.379 58.0235C161.414 58.7424 160.203 58.8937 159.087 59.064C159.03 59.064 158.784 59.0072 158.898 59.1964C159.352 59.9153 160.922 59.9721 161.66 59.6505C162.19 59.4234 163.022 58.6289 162.852 58.0424C162.757 57.7964 162.492 58.0613 162.379 58.0235Z" fill="url(#paint16_linear_86_1530)"/>
<path opacity="0.3" d="M170.551 165.859C172.557 163.608 175.735 160.013 175.924 155C176.416 142.116 156.476 137.103 157.271 126.622C157.876 118.468 170.078 119.395 177.022 104.922C178.213 102.444 182.565 93.0037 179.405 82.3147C178.138 78.0391 176.076 74.8986 174.524 72.9121C175.376 73.5175 176.208 74.1418 177.097 74.7472C181.732 80.2525 183.378 79.7985 186.992 87.3849C192.44 98.8117 188.43 111.884 187.862 125.979C187.238 141.435 187.843 170.192 195.619 185.043C195.751 185.308 195.846 185.478 195.808 185.743C194.067 201.407 121.117 190.454 121.231 184.702C121.306 181.259 121.628 177.305 122.158 173.011C124.731 173.748 156.23 182.016 170.551 165.859Z" fill="url(#paint17_linear_86_1530)"/>
<path d="M191.456 116.387C195.524 116.179 192.724 113.72 193.954 114.079C194.729 114.306 213.629 132.884 207.67 142.684C201.994 152.03 178.402 145.692 170.078 142.722C165.462 141.076 151.746 135.968 143.403 122.706C142.646 121.514 142.098 120.493 141.719 119.774C159.938 117.39 168.659 116.804 173.219 116.785C176.151 116.766 179.121 116.993 191.456 116.387Z" fill="url(#paint18_linear_86_1530)"/>
<path d="M184.57 114.496C184.059 118.601 181.94 131.258 171.232 141.644C169.113 143.706 154.679 157.233 134.455 153.828C118.658 151.16 104.582 139.052 101.328 123.936C94.9714 94.4232 132.695 68.3722 141.36 72.837C147.168 75.8262 148.833 97.1853 140.13 107.988C138.238 110.334 134.719 113.588 135.268 117.674C135.798 121.59 139.771 124.069 142.022 125.431C152.635 131.844 175.886 115.271 182.035 113.909C182.489 113.909 182.829 113.474 184.57 114.496Z" fill="url(#paint19_linear_86_1530)"/>
<path opacity="0.3" d="M128.155 107.836C131.825 104.128 136.063 102.161 140.849 100.704C142.041 100.382 143.233 100.08 144.406 99.7769C143.422 102.804 142.041 105.642 140.149 107.988C138.257 110.333 134.738 113.587 135.287 117.674C135.817 121.59 139.79 124.068 142.041 125.431C152.654 131.844 175.905 115.271 182.054 113.909C182.489 113.89 182.829 113.474 184.589 114.496C184.457 115.517 184.229 117.087 183.794 119.017C175.073 116.217 165.595 124.976 158.046 129.252C148.341 134.738 136.271 138.276 126.83 131.03C119.717 125.752 122.29 113.928 128.155 107.836Z" fill="url(#paint20_linear_86_1530)"/>
<path opacity="0.3" d="M123.52 79.061C125.166 84.6231 125.374 90.2609 122.063 95.6338C117.277 103.201 111.942 109.539 109.993 118.014C108.253 125.204 109.312 132.298 111.374 139.336C111.979 141.209 112.906 142.836 114.042 144.292C107.704 138.957 103.05 131.863 101.347 123.955C97.3365 105.339 110.825 88.1231 123.52 79.061Z" fill="url(#paint21_linear_86_1530)"/>
<path d="M143.403 122.706C142.892 123.917 140.414 125.146 139.203 125.014C137.179 124.787 135.741 123.406 134.474 122.8C133.339 122.271 130.803 121.533 130.652 120.625C130.368 118.922 133.13 118.43 134.757 118.279C137.028 118.052 139.468 118.714 141.738 119.792C142.287 120.757 142.911 121.722 143.403 122.706Z" fill="url(#paint22_linear_86_1530)"/>
<path d="M188.221 116.539C180.256 117.655 178.421 117.106 178.194 116.406C177.911 115.517 180.048 113.701 182.356 113.379C184.683 113.058 187.048 114.306 188.221 116.539Z" fill="url(#paint23_linear_86_1530)"/>
<defs>
<linearGradient id="paint0_linear_86_1530" x1="475.5" y1="366.92" x2="287.107" y2="250.233" gradientUnits="userSpaceOnUse">
<stop stop-color="#EF9F8E"/>
<stop offset="1" stop-color="#E68273"/>
</linearGradient>
<linearGradient id="paint1_linear_86_1530" x1="64.8001" y1="92.925" x2="275.988" y2="271.469" gradientUnits="userSpaceOnUse">
<stop stop-color="#F6AF9A"/>
<stop offset="0.9964" stop-color="#F89F8A"/>
</linearGradient>
<linearGradient id="paint2_linear_86_1530" x1="0.00949715" y1="170.326" x2="306.37" y2="170.326" gradientUnits="userSpaceOnUse">
<stop stop-color="#F6AF9A"/>
<stop offset="0.9964" stop-color="#F89F8A"/>
</linearGradient>
<linearGradient id="paint3_linear_86_1530" x1="157.793" y1="317.616" x2="142.721" y2="318.973" gradientUnits="userSpaceOnUse">
<stop stop-color="#3B3138"/>
<stop offset="1" stop-color="#241F21"/>
</linearGradient>
<linearGradient id="paint4_linear_86_1530" x1="149.148" y1="318.231" x2="141.571" y2="304.982" gradientUnits="userSpaceOnUse">
<stop stop-color="#CBAF85"/>
<stop offset="1" stop-color="#BA7C44"/>
</linearGradient>
<linearGradient id="paint5_linear_86_1530" x1="209.959" y1="315.034" x2="194.251" y2="318.463" gradientUnits="userSpaceOnUse">
<stop stop-color="#3B3138"/>
<stop offset="1" stop-color="#241F21"/>
</linearGradient>
<linearGradient id="paint6_linear_86_1530" x1="200.237" y1="316.995" x2="191.49" y2="304.096" gradientUnits="userSpaceOnUse">
<stop stop-color="#CBAF85"/>
<stop offset="1" stop-color="#BA7C44"/>
</linearGradient>
<linearGradient id="paint7_linear_86_1530" x1="206.082" y1="288.618" x2="168.411" y2="189.798" gradientUnits="userSpaceOnUse">
<stop stop-color="#3B3138"/>
<stop offset="1" stop-color="#241F21"/>
</linearGradient>
<linearGradient id="paint8_linear_86_1530" x1="199.284" y1="291.209" x2="161.613" y2="192.39" gradientUnits="userSpaceOnUse">
<stop stop-color="#5D535A"/>
<stop offset="1" stop-color="#464143"/>
</linearGradient>
<linearGradient id="paint9_linear_86_1530" x1="181.943" y1="293.974" x2="132.453" y2="200.511" gradientUnits="userSpaceOnUse">
<stop stop-color="#3B3138"/>
<stop offset="1" stop-color="#241F21"/>
</linearGradient>
<linearGradient id="paint10_linear_86_1530" x1="125.104" y1="35.9091" x2="289.867" y2="238.318" gradientUnits="userSpaceOnUse">
<stop stop-color="#5D535A"/>
<stop offset="1" stop-color="#464143"/>
</linearGradient>
<linearGradient id="paint11_linear_86_1530" x1="93.8229" y1="61.3726" x2="258.586" y2="263.781" gradientUnits="userSpaceOnUse">
<stop stop-color="#5D535A"/>
<stop offset="1" stop-color="#464143"/>
</linearGradient>
<linearGradient id="paint12_linear_86_1530" x1="158.252" y1="51.6094" x2="144.756" y2="101.844" gradientUnits="userSpaceOnUse">
<stop stop-color="#CBAF85"/>
<stop offset="1" stop-color="#BA7C44"/>
</linearGradient>
<linearGradient id="paint13_linear_86_1530" x1="152.253" y1="54.7335" x2="155.383" y2="16.4765" gradientUnits="userSpaceOnUse">
<stop stop-color="#3B3138"/>
<stop offset="1" stop-color="#241F21"/>
</linearGradient>
<linearGradient id="paint14_linear_86_1530" x1="152.671" y1="57.9883" x2="192.451" y2="39.5686" gradientUnits="userSpaceOnUse">
<stop stop-color="#CBAF85"/>
<stop offset="1" stop-color="#BA7C44"/>
</linearGradient>
<linearGradient id="paint15_linear_86_1530" x1="155.936" y1="55.0353" x2="159.066" y2="16.7792" gradientUnits="userSpaceOnUse">
<stop stop-color="#3B3138"/>
<stop offset="1" stop-color="#241F21"/>
</linearGradient>
<linearGradient id="paint16_linear_86_1530" x1="161.972" y1="50.0266" x2="155.356" y2="101.621" gradientUnits="userSpaceOnUse">
<stop stop-color="#CBAF85"/>
<stop offset="1" stop-color="#BA7C44"/>
</linearGradient>
<linearGradient id="paint17_linear_86_1530" x1="85.6255" y1="24.2971" x2="220.565" y2="244.307" gradientUnits="userSpaceOnUse">
<stop stop-color="#5D535A"/>
<stop offset="1" stop-color="#464143"/>
</linearGradient>
<linearGradient id="paint18_linear_86_1530" x1="111.084" y1="47.3218" x2="275.847" y2="249.731" gradientUnits="userSpaceOnUse">
<stop stop-color="#5D535A"/>
<stop offset="1" stop-color="#464143"/>
</linearGradient>
<linearGradient id="paint19_linear_86_1530" x1="93.6153" y1="61.5418" x2="258.378" y2="263.951" gradientUnits="userSpaceOnUse">
<stop stop-color="#5D535A"/>
<stop offset="1" stop-color="#464143"/>
</linearGradient>
<linearGradient id="paint20_linear_86_1530" x1="92.3427" y1="20.1771" x2="227.282" y2="240.187" gradientUnits="userSpaceOnUse">
<stop stop-color="#5D535A"/>
<stop offset="1" stop-color="#464143"/>
</linearGradient>
<linearGradient id="paint21_linear_86_1530" x1="69.8915" y1="33.9475" x2="204.831" y2="253.957" gradientUnits="userSpaceOnUse">
<stop stop-color="#5D535A"/>
<stop offset="1" stop-color="#464143"/>
</linearGradient>
<linearGradient id="paint22_linear_86_1530" x1="135.388" y1="105.412" x2="137.888" y2="130.237" gradientUnits="userSpaceOnUse">
<stop stop-color="#CBAF85"/>
<stop offset="1" stop-color="#BA7C44"/>
</linearGradient>
<linearGradient id="paint23_linear_86_1530" x1="181.627" y1="100.757" x2="184.126" y2="125.582" gradientUnits="userSpaceOnUse">
<stop stop-color="#CBAF85"/>
<stop offset="1" stop-color="#BA7C44"/>
</linearGradient>
</defs>
</svg>
