<svg width="462" height="377" viewBox="0 0 462 377" fill="none" xmlns="http://www.w3.org/2000/svg">
<path d="M230.9 377C358.075 377 461.17 370.992 461.17 363.58C461.17 356.169 358.075 350.161 230.9 350.161C103.725 350.161 0.629395 356.169 0.629395 363.58C0.629395 370.992 103.725 377 230.9 377Z" fill="#EFE7DB"/>
<path d="M225.556 148.511L227.575 151.005L37.8008 302.064L45.8763 312.04L47.0638 313.465L236.719 162.406L238.738 164.9L242.301 148.511H225.556Z" fill="#253359"/>
<path opacity="0.7" d="M225.556 148.511L227.575 151.005L37.8008 302.064L45.8763 312.04L47.0638 313.465L236.719 162.406L238.738 164.9L242.301 148.511H225.556Z" fill="white"/>
<path d="M9.89258 312.634C9.89258 309.19 12.7427 306.34 16.1867 306.34C16.7805 306.34 17.3743 306.458 17.9681 306.577C17.8493 305.983 17.8493 305.271 17.8493 304.677C17.8493 297.314 23.7872 291.495 31.0314 291.495C31.8627 291.495 32.694 291.614 33.5253 291.732C35.5442 288.407 39.2256 286.151 43.3821 286.151C49.6763 286.151 54.9016 291.257 54.9016 297.552C55.0204 297.552 55.0204 297.552 55.1391 297.552C61.077 297.552 65.8273 302.302 65.8273 308.24C65.8273 314.178 61.077 318.928 55.1391 318.928H16.068C12.624 318.809 9.89258 316.078 9.89258 312.634Z" fill="#253359"/>
<path opacity="0.8" d="M9.89258 312.634C9.89258 309.19 12.7427 306.34 16.1867 306.34C16.7805 306.34 17.3743 306.458 17.9681 306.577C17.8493 305.983 17.8493 305.271 17.8493 304.677C17.8493 297.314 23.7872 291.495 31.0314 291.495C31.8627 291.495 32.694 291.614 33.5253 291.732C35.5442 288.407 39.2256 286.151 43.3821 286.151C49.6763 286.151 54.9016 291.257 54.9016 297.552C55.0204 297.552 55.0204 297.552 55.1391 297.552C61.077 297.552 65.8273 302.302 65.8273 308.24C65.8273 314.178 61.077 318.928 55.1391 318.928H16.068C12.624 318.809 9.89258 316.078 9.89258 312.634Z" fill="white"/>
<path d="M407.611 244.23L412.242 250.049L324.125 321.303L343.244 345.055L345.857 348.261L434.094 277.125L438.844 282.944L447.276 244.111L407.611 244.23Z" fill="#253359"/>
<path opacity="0.5" d="M407.611 244.23L412.242 250.049L324.125 321.303L343.244 345.055L345.857 348.261L434.094 277.125L438.844 282.944L447.276 244.111L407.611 244.23Z" fill="white"/>
<path d="M359.871 318.809C356.308 313.109 350.014 309.309 342.77 309.309C335.407 309.309 329.112 313.228 325.55 319.047C324.6 318.809 323.65 318.69 322.699 318.69C316.762 318.69 311.893 323.559 311.893 329.497H306.192C303.223 329.497 300.848 331.872 300.848 334.841C300.848 337.81 303.223 340.186 306.192 340.186H325.906C329.469 345.767 335.763 349.567 342.888 349.567C348.47 349.567 353.576 347.192 357.258 343.511C357.614 343.511 357.97 343.511 358.327 343.511C365.215 343.511 370.796 337.929 370.796 331.041C370.677 324.747 365.927 319.522 359.871 318.809Z" fill="#253359"/>
<path opacity="0.8" d="M359.871 318.809C356.308 313.109 350.014 309.309 342.77 309.309C335.407 309.309 329.112 313.228 325.55 319.047C324.6 318.809 323.65 318.69 322.699 318.69C316.762 318.69 311.893 323.559 311.893 329.497H306.192C303.223 329.497 300.848 331.872 300.848 334.841C300.848 337.81 303.223 340.186 306.192 340.186H325.906C329.469 345.767 335.763 349.567 342.888 349.567C348.47 349.567 353.576 347.192 357.258 343.511C357.614 343.511 357.97 343.511 358.327 343.511C365.215 343.511 370.796 337.929 370.796 331.041C370.677 324.747 365.927 319.522 359.871 318.809Z" fill="white"/>
<path d="M227.456 77.8507L225.794 76.0694C225.318 75.5943 224.606 75.3568 224.012 75.4756L221.399 75.9506C220.568 76.0694 219.974 76.7819 219.856 77.6132L218.549 88.3014L222.468 89.8452C227.337 87.7076 227.1 81.2947 227.1 81.2947L227.812 79.9883C228.169 79.3946 228.05 78.4445 227.456 77.8507Z" fill="#FFB573"/>
<path d="M179.597 109.915C179.597 109.915 183.397 110.153 185.653 110.034C187.91 110.034 190.166 109.915 192.304 109.796C194.441 109.677 196.698 109.559 198.716 109.202C199.667 109.084 200.617 108.846 201.448 108.727C201.804 108.609 202.16 108.49 202.279 108.49C202.517 108.371 202.279 108.609 202.398 108.49C202.754 108.134 203.467 107.302 204.179 106.471C204.773 105.64 205.486 104.808 206.079 103.858C207.386 102.077 208.692 100.177 209.998 98.2768L217.718 86.7573L223.774 89.9638C222.824 92.2202 221.874 94.3578 220.924 96.4954C219.974 98.6331 218.905 100.771 217.836 102.908C216.768 105.046 215.699 107.184 214.392 109.202C213.799 110.271 213.205 111.34 212.492 112.409C211.78 113.478 211.067 114.547 209.88 115.853C209.167 116.565 207.98 117.515 207.148 117.872C206.317 118.347 205.486 118.703 204.773 118.941C203.348 119.416 202.042 119.772 200.735 120.128C198.123 120.722 195.629 121.078 193.254 121.316C188.385 121.791 183.634 122.028 178.646 121.909L179.597 109.915Z" fill="#253359"/>
<path d="M223.775 90.0825C222.825 92.3389 221.874 94.4765 220.924 96.6142C219.856 98.7518 218.906 100.889 217.837 103.027C216.768 105.165 215.699 107.302 214.511 109.321C213.918 110.39 213.324 111.459 212.611 112.528C211.899 113.596 211.186 114.665 209.999 115.972C209.286 116.684 208.099 117.634 207.267 117.99C206.436 118.466 205.605 118.822 204.892 119.059C203.467 119.534 202.161 119.891 200.854 120.247C198.242 120.841 195.748 121.197 193.373 121.434C192.304 121.553 191.235 121.672 190.285 121.672C186.485 121.909 182.685 122.028 178.884 121.909L179.122 119.416L179.834 109.796C179.834 109.796 183.635 110.034 185.891 110.034C188.147 110.034 190.404 109.915 192.541 109.796C194.679 109.677 196.935 109.559 198.954 109.202C199.904 109.084 200.854 108.846 201.686 108.727C202.042 108.609 202.398 108.49 202.517 108.49C202.755 108.371 202.517 108.609 202.636 108.49C202.992 108.134 203.705 107.302 204.417 106.471C205.011 105.64 205.723 104.808 206.317 103.858C207.624 102.077 208.93 100.177 210.236 98.2768L217.955 86.7573L223.775 90.0825Z" fill="white"/>
<path opacity="0.1" d="M190.047 121.791C186.247 122.028 182.447 122.147 178.646 122.028L178.884 119.534L179.834 117.397C179.715 117.397 186.009 117.278 190.047 121.791Z" fill="black"/>
<path d="M116.062 322.966C116.062 322.966 105.255 315.603 105.967 310.615C106.086 310.14 105.73 309.665 105.255 309.665L96.1103 308.24C95.6352 308.121 95.279 308.359 94.9227 308.715L89.5786 316.315L91.9538 317.147L93.2601 316.197L93.8539 317.74C107.036 322.491 112.736 324.391 115.586 324.51C116.418 323.56 116.062 322.966 116.062 322.966Z" fill="black"/>
<path d="M176.628 183.307C176.628 183.307 176.034 184.732 175.084 187.226C174.015 189.958 172.59 193.758 170.69 198.389C169.502 201.477 168.077 204.921 166.652 208.484C160.002 225.11 151.333 245.774 145.513 256.224C134.469 276.175 105.848 313.94 105.848 313.94L94.4478 309.784C94.4478 309.784 114.993 270.831 125.443 250.999C128.65 244.942 132.213 236.154 135.894 226.416C137.557 221.785 139.338 217.034 141.001 212.284C141.713 210.146 142.544 208.009 143.257 205.871C145.157 200.289 146.939 194.945 148.482 190.195C148.72 189.601 148.839 189.008 149.076 188.414C149.67 186.514 150.264 184.614 150.858 182.951C153.114 175.944 154.539 171.313 154.539 171.075L164.752 176.657L176.628 183.307Z" fill="black"/>
<path opacity="0.3" d="M175.084 187.226C174.015 189.957 172.59 193.757 170.69 198.389C169.502 201.477 168.077 204.921 166.652 208.483C157.27 210.384 147.77 211.571 141 212.402C141.713 210.265 142.544 208.127 143.257 205.989C145.157 200.408 146.938 195.064 148.482 190.314C148.72 189.72 148.838 189.126 149.076 188.532C149.67 186.632 150.264 184.732 150.857 183.069C157.627 184.019 166.771 185.444 175.084 187.226Z" fill="black"/>
<path d="M140.05 116.328C141.713 121.909 142.663 128.322 143.257 134.616C143.613 139.485 143.851 144.354 143.851 148.748C143.851 153.142 143.732 157.061 143.613 160.03C143.375 163.83 143.138 166.206 143.138 166.206L179.24 168.106C190.047 128.916 179.596 110.152 179.596 110.152C179.596 110.152 175.084 109.677 169.977 109.915C169.265 109.915 168.671 110.033 167.958 110.033C163.564 110.39 156.558 111.815 151.807 112.884C150.857 113.121 149.907 113.359 148.957 113.596C144.088 114.665 140.05 116.328 140.05 116.328Z" fill="#253359"/>
<path d="M179.24 167.987L143.138 166.087C143.138 166.087 143.376 163.712 143.494 159.912C143.494 158.843 143.613 157.537 143.613 156.112C143.732 153.855 143.732 151.361 143.732 148.63C143.732 147.324 143.732 145.898 143.613 144.592C143.613 144.355 143.613 144.117 143.613 143.88C143.494 141.623 143.494 139.367 143.257 136.992C143.138 136.16 143.138 135.329 143.019 134.498C143.019 133.785 142.901 133.191 142.901 132.479C142.782 130.816 142.544 129.154 142.307 127.491C142.188 127.016 142.188 126.541 142.069 126.185C141.951 125.472 141.832 124.76 141.713 123.928C141.238 121.197 140.644 118.584 139.932 116.09C139.932 116.09 143.969 114.546 148.72 113.24C149.67 113.003 150.62 112.765 151.57 112.528C156.32 111.459 163.327 110.034 167.721 109.677C168.433 109.677 169.146 109.559 169.74 109.559C174.846 109.321 179.359 109.796 179.359 109.796C179.359 109.796 190.047 128.679 179.24 167.987Z" fill="white"/>
<path d="M201.567 261.806C201.567 261.806 191.235 253.849 192.185 248.861C192.303 248.386 192.066 247.911 191.472 247.792L182.447 245.892C181.972 245.773 181.615 246.011 181.259 246.367L175.44 253.611L177.815 254.68L179.121 253.849L179.596 255.512C192.422 260.974 198.004 263.231 200.973 263.587C201.923 262.518 201.567 261.806 201.567 261.806Z" fill="black"/>
<path d="M160.358 198.627C160.952 198.627 161.189 198.627 161.189 198.627L204.417 204.921L179.834 245.773L192.185 250.524C192.185 250.524 236.719 202.427 226.862 191.501C218.668 182.476 178.528 177.013 178.528 177.013L179.834 167.631L142.663 160.268C126.75 194.945 155.014 198.27 160.358 198.627Z" fill="black"/>
<path d="M142.188 163.95L141.476 163.712L142.188 161.218L142.901 161.337L142.188 163.95Z" fill="black"/>
<path d="M171.403 169.531L155.608 166.444L156.202 163.95L171.996 167.037L171.403 169.531Z" fill="black"/>
<path d="M173.184 167.275L179.953 168.581L179.478 171.075L172.709 169.769L173.184 167.275Z" fill="black"/>
<path d="M144.088 161.574L155.014 163.712L154.302 166.206L143.495 164.187L144.088 161.574Z" fill="black"/>
<g opacity="0.2">
<path d="M142.188 163.95L141.476 163.712L142.188 161.218L142.901 161.337L142.188 163.95Z" fill="white"/>
<path d="M171.403 169.531L155.608 166.444L156.202 163.95L171.996 167.037L171.403 169.531Z" fill="white"/>
<path d="M173.184 167.275L179.953 168.581L179.478 171.075L172.709 169.769L173.184 167.275Z" fill="white"/>
<path d="M144.088 161.574L155.014 163.712L154.302 166.206L143.495 164.187L144.088 161.574Z" fill="white"/>
</g>
<path d="M167.008 166.562L166.652 168.106C166.652 168.344 166.415 168.462 166.058 168.462L162.139 167.75C161.902 167.75 161.664 167.393 161.783 167.156L162.139 165.612C162.258 165.375 162.496 165.256 162.733 165.256L166.652 165.968C166.89 166.087 167.127 166.325 167.008 166.562Z" stroke="white" stroke-width="0.5891" stroke-miterlimit="10"/>
<path d="M163.802 166.681L162.496 166.443" stroke="white" stroke-width="0.5891" stroke-miterlimit="10" stroke-linecap="round" stroke-linejoin="round"/>
<path d="M155.489 96.2578L164.871 104.096C163.921 107.896 165.583 111.459 167.365 112.053C167.365 112.053 168.79 115.378 166.059 115.853C160.714 116.922 154.539 111.815 154.539 111.815C157.508 108.846 156.439 101.246 155.489 96.2578Z" fill="#EBB376"/>
<path opacity="0.2" d="M159.29 99.4644L164.871 104.096C164.634 105.046 164.515 105.877 164.396 106.827C162.258 106.59 159.408 104.333 159.171 102.196C159.052 101.008 159.171 100.058 159.29 99.4644Z" fill="black"/>
<path d="M163.802 80.9379C166.058 82.363 169.146 86.6383 165.346 87.7071C161.427 88.6572 159.883 78.444 163.802 80.9379Z" fill="black"/>
<path d="M152.045 95.5453C156.083 100.771 158.102 104.096 162.733 105.046C169.74 106.471 174.728 99.3455 172.471 93.0514C170.334 87.351 164.158 79.6318 157.389 81.1756C150.62 82.482 148.007 90.32 152.045 95.5453Z" fill="#FFB573"/>
<path d="M153.233 89.8448L148.483 84.2632C148.483 84.2632 142.188 88.8947 145.039 91.7449C143.138 96.2577 150.62 102.433 157.271 101.127C157.983 97.089 152.164 90.2011 152.164 90.2011C152.402 90.0823 152.758 89.9635 153.233 89.8448Z" fill="black"/>
<path d="M152.877 101.483C154.302 102.552 155.964 103.027 157.508 102.79C159.646 102.552 159.883 100.296 158.577 98.7519C157.389 97.3268 154.895 95.6642 152.995 96.733C151.214 97.8019 151.333 100.177 152.877 101.483Z" fill="#FFB573"/>
<path d="M161.308 91.3886C161.664 91.8636 162.14 91.9824 162.377 91.8636C162.615 91.6261 162.615 91.1511 162.377 90.6761C162.021 90.201 161.546 90.0823 161.308 90.201C160.952 90.4386 160.952 91.0323 161.308 91.3886Z" fill="black"/>
<path d="M166.296 88.0634C166.653 88.5384 167.128 88.6572 167.365 88.5385C167.603 88.3009 167.603 87.8259 167.365 87.3509C167.009 86.8759 166.534 86.7571 166.296 86.8758C166.059 86.9946 166.059 87.5884 166.296 88.0634Z" fill="black"/>
<path d="M164.871 89.3701C164.871 89.3701 167.603 91.1515 169.503 91.6265C169.146 92.8141 167.603 93.4079 167.603 93.4079L164.871 89.3701Z" fill="#ED893E"/>
<path d="M163.446 96.3764C163.209 96.4952 163.09 96.614 162.852 96.7327C162.733 96.7327 162.733 96.8515 162.852 96.9702C162.852 97.089 162.971 97.089 163.09 96.9702C164.99 95.5451 166.89 96.2577 166.89 96.2577C167.009 96.2577 167.009 96.2577 167.128 96.1389C167.128 96.0202 167.128 96.0202 167.009 95.9014C166.89 96.0202 165.346 95.4264 163.446 96.3764Z" fill="black"/>
<path d="M157.864 89.9637C157.983 89.9637 158.102 89.9637 158.102 89.8449C158.815 88.6574 160.002 88.6574 160.002 88.6574C160.121 88.6574 160.358 88.5386 160.358 88.3011C160.358 88.1823 160.24 87.9448 160.002 87.9448C159.883 87.9448 158.458 87.9448 157.508 89.4887C157.389 89.6074 157.508 89.8449 157.627 89.9637C157.746 89.9637 157.864 89.9637 157.864 89.9637Z" fill="black"/>
<path d="M166.415 83.9072C166.415 83.9072 166.415 83.7884 166.415 83.6696C166.415 83.5509 166.177 83.4321 166.059 83.4321C164.396 83.9072 163.921 85.3322 163.921 85.3322C163.921 85.451 163.921 85.6885 164.158 85.6885C164.277 85.6885 164.515 85.6885 164.515 85.451C164.515 85.451 164.871 84.3822 166.177 83.9072C166.296 84.1447 166.296 84.0259 166.415 83.9072Z" fill="black"/>
<path d="M152.045 90.201C152.045 90.201 164.633 84.9756 165.346 78.919C166.059 72.8624 160.833 75.3563 160.833 75.3563C160.833 75.3563 163.327 75.2375 163.09 77.0189C163.09 77.0189 158.814 74.1687 154.777 76.6626C154.777 76.6626 156.677 76.6626 157.627 77.969C157.627 77.969 153.827 78.6815 149.551 81.888C145.157 85.0944 137.438 96.4951 152.045 90.201Z" fill="black"/>
<path opacity="0.3" d="M178.528 176.894L158.102 174.519C158.102 174.519 166.177 173.212 179.003 173.687L178.528 176.894Z" fill="black"/>
<path opacity="0.1" d="M143.376 137.11C143.257 136.279 143.257 135.448 143.138 134.616C143.138 133.904 143.019 133.31 143.019 132.597C142.901 130.935 142.663 129.272 142.425 127.61C142.307 127.135 142.307 126.66 142.188 126.303C142.782 125.828 143.376 125.472 143.969 125.116C143.969 125.116 145.157 131.054 143.376 137.11Z" fill="black"/>
<path d="M109.292 166.206L105.729 174.519L113.449 176.419C113.449 176.419 116.774 170.956 113.567 166.799L109.292 166.206Z" fill="#EBB376"/>
<path d="M106.323 181.051H112.38L113.449 176.538L105.848 174.638L106.323 181.051Z" fill="#EBB376"/>
<path d="M143.97 122.028C144.445 127.254 142.663 129.391 142.663 129.391C142.663 129.391 137.557 132.598 135.419 134.26C133.519 135.685 131.738 137.11 129.956 138.536C129.125 139.248 128.294 139.961 127.462 140.673C126.75 141.386 126.037 142.098 125.562 142.692C125.325 142.93 125.206 143.286 124.968 143.642C124.731 143.998 124.493 144.473 124.256 144.948C123.781 145.899 123.306 146.967 122.95 148.036C122.118 150.174 121.287 152.311 120.456 154.568C118.793 159.081 117.249 163.593 115.705 168.106L108.699 166.444C109.411 161.575 110.361 156.705 111.43 151.836C112.024 149.461 112.618 146.967 113.449 144.473C113.805 143.286 114.28 141.98 114.755 140.673C114.993 139.961 115.23 139.367 115.587 138.654C115.943 137.942 116.299 137.229 116.774 136.398C117.724 134.973 118.674 133.904 119.624 132.835C120.574 131.766 121.525 130.816 122.475 129.985C124.375 128.204 126.275 126.541 128.294 124.878C132.213 121.672 136.132 118.822 140.407 115.972C140.407 116.209 143.495 117.278 143.97 122.028Z" fill="#253359"/>
<path d="M143.97 122.028C144.445 127.254 142.663 129.391 142.663 129.391C142.663 129.391 137.557 132.598 135.419 134.26C133.519 135.685 131.738 137.11 129.956 138.536C129.125 139.248 128.294 139.961 127.462 140.673C126.75 141.386 126.037 142.098 125.562 142.692C125.325 142.93 125.206 143.286 124.968 143.642C124.731 143.998 124.493 144.473 124.256 144.948C123.781 145.899 123.306 146.967 122.95 148.036C122.118 150.174 121.287 152.311 120.456 154.568C118.793 159.081 117.249 163.593 115.705 168.106L108.699 166.444C109.411 161.575 110.361 156.705 111.43 151.836C112.024 149.461 112.618 146.967 113.449 144.473C113.805 143.286 114.28 141.98 114.755 140.673C114.993 139.961 115.23 139.367 115.587 138.654C115.943 137.942 116.299 137.229 116.774 136.398C117.724 134.973 118.674 133.904 119.624 132.835C120.574 131.766 121.525 130.816 122.475 129.985C124.375 128.204 126.275 126.541 128.294 124.878C132.213 121.672 136.132 118.822 140.407 115.972C140.407 116.209 143.495 117.278 143.97 122.028Z" fill="white"/>
<path d="M159.883 115.022L162.495 119.178C162.495 119.178 153.232 130.342 135.656 134.023L134.469 137.586L138.269 138.536C138.269 138.536 157.27 133.667 164.871 119.297L168.79 114.903L164.158 113.359L159.883 115.022Z" fill="#253359"/>
<path d="M151.333 112.528L155.608 108.846L164.158 113.478L165.108 108.371L169.621 110.984L170.927 117.634L164.633 114.903L159.052 119.891L151.333 112.528Z" fill="#253359"/>
<path d="M151.333 112.528L155.608 108.846L164.158 113.478L165.108 108.371L169.621 110.984L170.927 117.634L164.633 114.903L159.052 119.891L151.333 112.528Z" fill="#F3F3F3"/>
<path d="M269.14 38.3047C269.14 38.3047 261.183 48.1615 253.108 47.3302C245.032 46.4989 240.876 49.8241 240.876 49.8241L240.044 53.7431L244.438 53.1494C244.438 53.1494 244.438 50.0617 252.87 50.4179C261.302 50.7742 267.715 43.53 270.09 40.2048L269.14 38.3047Z" fill="#253359"/>
<path d="M326.499 21.7971L326.381 20.9658C326.262 20.6096 326.381 20.6096 326.024 19.897C325.549 18.7095 324.837 17.7594 324.124 17.0469C322.699 15.7405 321.512 15.2655 320.443 14.9092C318.424 14.1967 316.761 13.9592 315.217 13.7216C313.674 13.4841 312.13 13.4841 310.705 13.3654C307.736 13.2466 304.885 13.4841 302.035 13.6029C296.335 13.9592 290.872 14.6717 285.291 15.6218L287.309 27.3787C292.416 26.5474 297.76 25.8349 302.985 25.2411C305.598 25.0036 308.211 24.7661 310.586 24.7661C311.773 24.7661 313.08 24.7661 314.149 24.7661C314.98 24.7661 315.692 24.8848 316.286 25.0036C316.286 25.3599 316.286 25.8349 316.286 26.3099C316.167 28.3288 315.692 30.7039 314.98 33.0791C313.555 37.8294 311.417 42.6984 309.161 47.33L314.742 51.1302C318.305 46.6174 321.274 41.8671 323.768 36.4043C324.956 33.6729 326.024 30.8227 326.499 27.3787C326.737 25.7161 326.856 23.816 326.499 21.7971Z" fill="#253359"/>
<path d="M326.499 27.3786C326.143 30.2288 325.312 32.6039 324.362 34.9791C324.124 35.4541 324.005 35.9291 323.768 36.4042C321.274 41.867 318.305 46.6173 314.742 51.1301L309.279 47.4486C311.536 42.8171 313.673 37.948 315.099 33.1977C315.574 31.5351 315.93 29.8725 316.167 28.4474C316.286 27.7349 316.286 27.1411 316.405 26.5473C316.405 26.0723 316.405 25.5972 316.405 25.241C315.811 25.1222 315.099 25.0035 314.267 25.0035C313.08 24.8847 311.892 24.8847 310.705 25.0035C310.586 25.0035 310.467 25.0035 310.467 25.0035C308.092 25.1222 305.598 25.241 303.104 25.4785C298.116 25.9535 292.891 26.666 287.903 27.4973C287.784 27.4973 287.547 27.4974 287.428 27.6161L285.409 15.8591C290.991 14.9091 296.454 14.1965 302.154 13.8403C305.004 13.6027 307.854 13.484 310.823 13.6027C312.367 13.6027 313.792 13.7215 315.336 13.959C316.999 14.1965 318.542 14.434 320.561 15.1466C321.63 15.5029 322.699 15.9779 324.243 17.2842C324.955 17.878 325.668 18.9468 326.143 20.1344C326.38 20.9657 326.38 20.9657 326.499 21.2032L326.618 22.0345C326.856 23.8159 326.737 25.716 326.499 27.3786Z" fill="white"/>
<path opacity="0.1" d="M310.348 24.8847C307.973 25.0034 305.479 25.1222 302.985 25.3597C297.997 25.8347 292.772 26.5473 287.784 27.3786C289.566 22.8658 291.466 18.353 291.466 18.353C291.466 18.353 299.779 19.1843 310.348 24.8847Z" fill="black"/>
<path d="M324.48 34.9789C324.243 35.4539 324.124 35.929 323.886 36.404C321.393 41.8668 318.424 46.6171 314.861 51.1299L309.279 47.4484C311.536 42.8169 313.673 37.9479 315.098 33.1976C315.573 31.535 315.93 29.8724 316.167 28.4473C318.899 30.2286 321.749 32.3663 324.48 34.9789Z" fill="white"/>
<path d="M248.595 24.1718C248.951 24.5281 248.951 25.1219 248.713 25.2406C248.476 25.4781 248.001 25.2406 247.645 24.8843C247.288 24.5281 247.288 23.9343 247.526 23.8155C247.763 23.578 248.238 23.6968 248.595 24.1718Z" fill="black"/>
<path d="M248.951 25.0034C248.951 25.0034 249.901 28.0911 249.782 30.11C251.089 30.2287 252.039 28.9224 252.039 28.9224L248.951 25.0034Z" fill="#DE5753"/>
<path d="M248.239 20.7281C248.239 20.7281 248.357 20.6093 248.357 20.4906C248.357 20.3718 248.239 20.1343 248.001 20.2531C246.339 20.3718 245.626 21.5594 245.507 21.5594C245.388 21.6782 245.507 21.9157 245.626 22.0344C245.745 22.1532 245.982 22.0344 246.101 21.9157C246.101 21.9157 246.695 20.9656 248.12 20.8469L248.239 20.7281Z" fill="black"/>
<path d="M260.352 17.7593C264.271 20.6095 271.752 25.0035 276.028 23.3409C276.028 23.3409 279.828 26.5473 276.146 34.5041C272.109 43.2921 269.852 36.7605 269.852 36.7605C270.921 31.4164 267.24 29.8725 263.558 29.16L260.352 17.7593Z" fill="#E4897B"/>
<path d="M261.539 12.4153C265.221 17.7594 267.596 20.6095 267.121 25.2411C266.408 32.129 258.333 34.7417 253.108 30.7039C248.476 27.0224 243.251 18.9469 246.576 13.1278C249.901 7.30872 257.858 7.18996 261.539 12.4153Z" fill="#E4897B"/>
<path d="M267.477 21.2032C266.883 24.1722 256.789 28.3287 252.276 21.797C252.276 21.797 246.576 21.797 243.132 18.2343C239.688 14.7903 240.4 10.9901 243.488 8.97122C246.219 7.18986 253.226 -6.11096 261.539 3.38963C270.327 3.15211 268.19 17.403 267.477 21.2032Z" fill="black"/>
<path d="M250.495 7.6648C250.495 7.6648 245.151 7.42729 242.182 9.80244C239.094 12.1776 240.044 19.6593 241.113 21.0844C242.301 22.5095 243.488 22.5095 243.488 22.5095C243.488 22.5095 241.707 21.5594 241.707 20.2531C241.707 20.2531 242.538 22.0344 246.101 22.5095C246.101 22.5095 245.032 21.6782 245.269 20.6094C245.269 20.6094 247.17 23.1033 251.682 20.6094C256.195 18.1154 250.495 7.6648 250.495 7.6648Z" fill="black"/>
<path d="M255.008 20.728C255.958 22.1531 256.314 23.8157 256.314 25.2408C256.195 27.3784 254.414 27.4972 252.989 26.1909C251.801 25.0033 250.257 22.5094 251.089 20.728C251.92 18.9467 253.82 19.1842 255.008 20.728Z" fill="#E4897B"/>
<path d="M265.458 38.3041C265.458 38.3041 264.508 26.3096 272.228 19.6592L281.491 20.4905C281.609 20.4905 276.265 33.5538 265.458 38.3041Z" fill="#253359"/>
<path d="M265.458 38.3041C265.458 38.3041 264.508 26.3096 272.228 19.6592L281.491 20.4905C281.609 20.4905 276.265 33.5538 265.458 38.3041Z" fill="#E2E2E2"/>
<path d="M292.298 65.1438C292.298 65.1438 278.284 51.368 262.727 41.6299C262.727 41.6299 273.059 17.2846 286.241 15.147C286.241 15.147 320.087 25.3601 329.944 53.1493L292.298 65.1438Z" fill="#253359"/>
<path d="M294.079 149.342L288.022 151.955L281.491 138.179L287.547 135.566L294.079 149.342Z" fill="#E4897B"/>
<path d="M329.825 53.1489L326.262 91.1513C324.243 92.5764 321.156 93.7639 317.355 94.5952C309.992 96.3766 300.017 97.0891 291.585 97.5642C281.966 98.0392 274.128 98.158 273.415 98.7517C271.753 100.058 292.891 143.642 292.891 143.642L282.797 144.948C282.797 144.948 256.314 108.609 252.87 96.0203C251.564 91.3888 250.376 85.5697 258.927 80.1068C266.408 75.3566 294.435 71.6751 294.435 71.6751L292.298 65.1434L329.825 53.1489Z" fill="black"/>
<path opacity="0.2" d="M317.474 94.5952C310.111 96.3766 300.136 97.0891 291.704 97.5642C290.516 83.5508 297.642 70.1312 297.642 70.1312L307.617 67.5186L317.474 94.5952Z" fill="black"/>
<path d="M382.434 143.761L383.503 150.292L368.54 153.38L367.471 146.967L382.434 143.761Z" fill="#E4897B"/>
<path d="M383.86 150.53C383.86 150.53 383.741 150.412 383.741 150.53C383.622 150.53 383.622 150.649 383.622 150.649C383.622 150.768 383.741 153.38 384.572 154.212C384.691 154.331 384.928 154.449 385.166 154.449C385.522 154.449 385.641 154.212 385.76 154.093C385.997 153.618 385.641 152.905 385.166 152.193C384.572 151.48 384.097 150.887 383.86 150.53ZM383.86 151.124C384.691 152.074 385.522 153.499 385.285 153.974C385.285 154.093 385.166 154.093 384.928 154.093C384.81 154.093 384.691 154.093 384.572 153.974C384.453 153.856 384.453 153.856 384.335 153.737C384.097 153.024 383.978 151.718 383.86 151.124Z" fill="#253359"/>
<path d="M383.741 150.53H383.622C383.503 150.53 382.197 151.599 381.959 152.787C381.959 153.143 381.959 153.38 382.197 153.618C382.434 153.974 382.672 153.974 382.91 153.855C383.622 153.618 383.978 151.48 383.86 150.649C383.86 150.53 383.86 150.53 383.741 150.53ZM382.316 152.787C382.434 152.074 383.147 151.362 383.622 151.005C383.622 151.955 383.266 153.499 382.791 153.618C382.791 153.618 382.672 153.618 382.434 153.499C382.434 153.499 382.434 153.499 382.434 153.38C382.316 153.143 382.316 152.905 382.316 152.787Z" fill="#253359"/>
<path d="M382.672 150.411L378.871 144.236C378.753 143.998 378.753 143.761 378.99 143.523L383.265 139.367C383.74 138.892 384.453 139.011 384.809 139.604C386.116 141.861 388.016 145.067 389.678 147.917C391.697 151.124 393.597 153.855 395.973 157.655C397.398 159.912 395.497 162.05 394.666 161.218C390.985 157.418 388.728 153.855 383.978 151.599C383.503 151.243 383.028 150.886 382.672 150.411Z" fill="black"/>
<path d="M329.825 53.1489C329.825 53.1489 341.938 84.1446 321.512 96.2579C321.512 96.2579 321.274 132.123 326.381 136.279C332.675 141.386 378.515 143.998 378.515 143.998L378.159 155.399C378.159 155.399 328.993 159.437 314.149 154.093C296.691 147.799 292.891 65.6184 292.891 65.6184L329.825 53.1489Z" fill="black"/>
<path opacity="0.2" d="M315.93 72.2686L323.293 70.0122C323.293 70.0122 324.243 76.3063 324.243 79.7503L320.799 82.7192L317.593 81.6504C317.593 81.6504 316.761 74.8813 315.93 72.2686Z" fill="black"/>
<path d="M294.672 65.1436L295.622 68.2313L293.01 69.0626L291.941 66.0936L294.672 65.1436Z" fill="black"/>
<path d="M307.26 61.2246L308.211 64.3123L297.047 67.7563L295.979 64.7873L307.26 61.2246Z" fill="black"/>
<path d="M321.155 56.7119L322.224 59.9184L309.636 63.8374L308.686 60.7497L321.155 56.7119Z" fill="black"/>
<path d="M331.369 57.0684L323.649 59.5623L322.581 56.2371L330.3 53.7432L331.369 57.0684Z" fill="black"/>
<g opacity="0.2">
<path d="M294.672 65.1436L295.622 68.2313L293.01 69.0626L291.941 66.0936L294.672 65.1436Z" fill="white"/>
<path d="M307.26 61.2246L308.211 64.3123L297.047 67.7563L295.979 64.7873L307.26 61.2246Z" fill="white"/>
<path d="M321.155 56.7119L322.224 59.9184L309.636 63.8374L308.686 60.7497L321.155 56.7119Z" fill="white"/>
<path d="M331.369 57.0684L323.649 59.5623L322.581 56.2371L330.3 53.7432L331.369 57.0684Z" fill="white"/>
</g>
<path d="M286.122 150.055C286.241 150.055 286.241 149.936 286.241 149.936C286.241 149.817 286.241 149.817 286.122 149.817C286.003 149.817 283.747 148.511 282.559 148.867C282.322 148.986 282.203 149.105 282.084 149.224C281.965 149.58 281.965 149.817 282.084 149.936C282.322 150.292 283.153 150.411 283.984 150.411C284.934 150.174 285.766 150.055 286.122 150.055ZM285.647 149.817C284.459 150.055 282.797 150.055 282.44 149.58C282.44 149.58 282.322 149.461 282.44 149.224C282.44 149.105 282.559 148.986 282.797 148.986C282.915 148.986 283.034 148.986 283.153 148.986C283.866 148.986 285.053 149.461 285.647 149.817Z" fill="#253359"/>
<path d="M286.241 149.936L286.359 149.817C286.359 149.699 286.122 147.917 285.29 147.323C285.053 147.086 284.697 147.086 284.459 147.086C283.984 147.086 283.865 147.323 283.865 147.561C283.747 148.274 285.409 149.699 286.122 150.055C286.122 150.055 286.122 150.055 286.241 149.936C286.241 150.055 286.122 150.055 286.241 149.936ZM285.053 147.561C285.647 148.036 285.884 149.105 286.003 149.58C285.172 149.105 284.103 148.036 284.103 147.561C284.103 147.561 284.103 147.442 284.459 147.323H284.578C284.697 147.442 284.815 147.442 285.053 147.561Z" fill="#253359"/>
<path d="M286.834 149.105L294.079 148.986C294.316 148.986 294.554 149.105 294.672 149.461L296.097 155.28C296.216 155.874 295.741 156.468 295.147 156.468C292.535 156.468 288.853 156.468 285.528 156.468C281.728 156.586 278.403 156.824 274.009 156.943C271.277 157.061 270.446 154.33 271.633 153.974C276.74 152.667 281.015 152.549 285.409 149.698C285.647 149.342 286.241 149.105 286.834 149.105Z" fill="black"/>
<path d="M329.825 53.1492L292.298 65.1437C292.298 65.1437 285.647 58.612 276.503 51.4866C274.722 50.1803 272.94 48.7552 271.04 47.3301C268.309 45.43 265.577 43.4111 262.727 41.7485C262.727 41.7485 273.059 17.4033 286.241 15.2656C286.122 15.2656 320.087 25.4788 329.825 53.1492Z" fill="white"/>
<path opacity="0.1" d="M276.503 51.4861C274.722 50.1798 272.94 48.7547 271.04 47.3296L271.753 45.0732C271.753 45.0732 274.959 47.8047 276.503 51.4861Z" fill="black"/>
<path d="M222.231 76.3066L219.618 76.9003C219.024 77.0191 218.43 77.6129 218.43 78.2067L217.837 81.7694C217.718 82.4819 218.193 83.3132 218.905 83.5507L220.805 84.2633C220.805 84.2633 226.268 88.1823 230.9 85.6884L228.881 80.3443L224.962 76.7816C224.131 76.3066 223.181 76.069 222.231 76.3066Z" fill="#E4897B"/>
<path d="M269.377 42.6982C272.702 44.7171 272.94 48.7548 272.94 48.7548C272.94 48.7548 270.327 55.8803 268.783 59.3242C267.715 61.6994 266.646 64.0745 265.458 66.4497C264.152 68.8248 262.964 71.2 260.827 73.8126L260.47 74.2877L259.995 74.7627C259.758 75.119 259.283 75.4752 258.808 75.8315C258.57 75.9503 258.333 76.1878 257.976 76.4253C257.739 76.6628 257.383 76.9003 257.264 76.9003L256.314 77.3753C255.008 78.0879 253.82 78.5629 252.514 79.038C250.02 79.988 247.645 80.9381 245.269 81.7694C240.4 83.432 235.531 84.8571 230.662 86.1634L228.287 79.8693C232.681 77.6129 237.313 75.4752 241.707 73.2188C243.963 72.15 246.101 70.9624 248.238 69.8936C249.307 69.2998 250.376 68.7061 251.207 68.231L251.801 67.8748C251.801 67.756 251.92 67.756 252.039 67.6372L252.157 67.3997L252.276 67.1622C253.226 65.7371 254.295 63.5995 255.245 61.5806C256.195 59.443 257.145 57.1866 257.976 54.9302C259.758 50.4174 261.302 45.6671 262.845 41.1544C262.964 41.1544 265.814 40.5606 269.377 42.6982Z" fill="#253359"/>
<path d="M269.377 42.6982C272.702 44.7171 272.94 48.7548 272.94 48.7548C272.94 48.7548 270.327 55.8803 268.783 59.3242C267.715 61.6994 266.646 64.0745 265.458 66.4497C264.152 68.8248 262.964 71.2 260.827 73.8126L260.47 74.2877L259.995 74.7627C259.758 75.119 259.283 75.4752 258.808 75.8315C258.57 75.9503 258.333 76.1878 257.976 76.4253C257.739 76.6628 257.383 76.9003 257.264 76.9003L256.314 77.3753C255.008 78.0879 253.82 78.5629 252.514 79.038C250.02 79.988 247.645 80.9381 245.269 81.7694C240.4 83.432 235.531 84.8571 230.662 86.1634L228.287 79.8693C232.681 77.6129 237.313 75.4752 241.707 73.2188C243.963 72.15 246.101 70.9624 248.238 69.8936C249.307 69.2998 250.376 68.7061 251.207 68.231L251.801 67.8748C251.801 67.756 251.92 67.756 252.039 67.6372L252.157 67.3997L252.276 67.1622C253.226 65.7371 254.295 63.5995 255.245 61.5806C256.195 59.443 257.145 57.1866 257.976 54.9302C259.758 50.4174 261.302 45.6671 262.845 41.1544C262.964 41.1544 265.814 40.5606 269.377 42.6982Z" fill="white"/>
<path d="M52.1704 357.762H252.752L358.921 272.019L363.552 277.838H389.679L416.281 155.162L390.154 155.28V155.162L264.746 155.518L279.71 174.044L52.1704 357.762Z" fill="#253359"/>
<path opacity="0.2" d="M52.1704 357.762H226.625L348.589 259.312L363.552 277.838L390.154 155.162L264.746 155.518L279.71 174.044L52.1704 357.762Z" fill="white"/>
<path d="M48.1326 350.755H192.185C192.067 350.161 192.067 349.567 192.067 348.855C192.067 339.592 199.548 332.11 208.811 332.11C209.049 332.11 209.168 332.11 209.405 332.11C211.543 326.528 216.887 322.491 223.3 322.491C231.494 322.491 238.144 329.141 238.144 337.335C245.389 337.692 251.208 343.511 251.564 350.755H252.277C256.314 350.755 259.758 354.08 259.758 358.237C259.758 362.274 256.433 365.718 252.277 365.718H48.1326C44.0948 365.718 40.6509 362.393 40.6509 358.237C40.6509 354.08 43.9761 350.755 48.1326 350.755Z" fill="#253359"/>
<path opacity="0.7" d="M48.1326 350.755H192.185C192.067 350.161 192.067 349.567 192.067 348.855C192.067 339.592 199.548 332.11 208.811 332.11C209.049 332.11 209.168 332.11 209.405 332.11C211.543 326.528 216.887 322.491 223.3 322.491C231.494 322.491 238.144 329.141 238.144 337.335C245.389 337.692 251.208 343.511 251.564 350.755H252.277C256.314 350.755 259.758 354.08 259.758 358.237C259.758 362.274 256.433 365.718 252.277 365.718H48.1326C44.0948 365.718 40.6509 362.393 40.6509 358.237C40.6509 354.08 43.9761 350.755 48.1326 350.755Z" fill="white"/>
</svg>
