<svg width="1029" height="343" viewBox="0 0 1029 343" fill="none" xmlns="http://www.w3.org/2000/svg">
<path d="M64.3999 309.864L176.85 309.582L289.3 309.442L514.2 309.16L739.1 309.442L851.55 309.582L964 309.864L851.55 310.287L739.1 310.428L514.2 310.569L289.3 310.428L176.85 310.287L64.3999 309.864Z" fill="black"/>
<path d="M111.324 116.811C105.829 138.652 95.4011 164.017 100.474 186.986C104.42 204.882 117.666 219.115 132.18 229.542C164.167 252.371 213.065 264.489 244.912 234.615C257.594 222.638 265.344 193.891 251.112 179.94C243.784 172.754 234.061 169.513 225.184 165.003C213.347 159.085 205.737 150.207 202.355 137.384C195.732 112.442 201.369 96.2371 204.328 71.2952C204.892 66.645 204.751 61.9948 200.946 57.2037C197.987 52.5535 193.337 48.7488 188.123 46.0714C183.755 43.2531 178.964 40.9985 173.75 40.5757C162.617 39.4484 150.217 47.3396 140.494 51.8489C130.63 56.3582 125.416 62.2766 122.598 72.7043C118.652 87.2185 115.129 102.015 111.324 116.811Z" fill="black"/>
<path d="M106.534 126.674C112.875 106.946 119.639 87.3591 126.262 67.6311C126.262 67.4902 126.543 67.4902 126.402 67.6311C121.47 83.9772 116.679 100.323 111.466 116.669C106.393 132.593 100.051 148.657 96.3876 165.003C88.0737 201.641 122.88 224.469 154.585 229.119C155.995 229.26 155.572 231.656 154.022 231.374C126.402 226.442 95.4012 210.237 93.2875 178.672C92.1602 161.199 101.32 142.739 106.534 126.674Z" fill="black"/>
<path d="M203.06 68.7582C203.201 68.3354 203.765 68.4764 203.624 68.8991C200.383 89.3317 194.746 112.865 202.637 132.874C206.442 142.598 213.347 151.193 222.084 157.112C228.988 161.762 237.021 163.735 244.63 166.835C274.504 179.376 266.19 221.369 240.121 233.065C239.557 233.347 239.134 232.36 239.698 232.078C258.158 222.637 268.163 200.654 258.721 181.208C251.112 165.567 230.257 165.708 217.574 155.421C191.223 134.284 196.296 98.0684 203.06 68.7582Z" fill="black"/>
<path d="M183.191 173.459C213.065 199.951 258.862 220.524 270.84 211.928C284.649 201.923 319.596 141.048 330.588 106.947C332.983 99.4784 275.208 85.6688 274.081 91.0235C270.276 109.624 248.857 158.381 247.025 160.776C244.911 163.595 210.528 151.194 191.505 147.812C160.785 142.176 163.463 155.985 183.191 173.459Z" fill="white"/>
<path d="M284.791 100.887C283.522 94.1236 278.027 56.3584 278.168 47.3399C278.45 30.7119 282.395 13.6613 289.159 12.2521C294.655 11.1248 297.191 20.707 297.191 20.707C297.191 20.707 300.996 10.2793 308.042 10.9839C315.087 11.6884 313.255 23.5253 313.255 23.5253C313.255 23.5253 317.906 13.0976 324.81 14.3658C331.715 15.6341 328.052 27.1891 328.052 27.1891C328.052 27.1891 331.856 17.4659 337.211 20.8479C343.552 24.9344 334.393 42.2669 333.97 52.131C333.97 53.681 336.647 77.2138 335.661 92.7145C335.097 100.465 330.588 106.101 330.588 106.101L284.791 100.887Z" fill="white"/>
<path d="M328.897 26.9072C322.274 39.5896 321.429 46.2126 322.556 60.304C322.556 60.5859 322.133 60.7268 322.133 60.445C319.879 46.7762 319.456 38.1804 328.334 26.6254C328.756 25.9208 329.179 26.2027 328.897 26.9072Z" fill="black"/>
<path d="M313.819 22.961C309.169 37.1934 308.887 44.5209 310.155 59.1761C310.155 59.317 309.873 59.4579 309.733 59.1761C307.337 44.8027 306.491 36.3479 312.974 22.6791C313.396 22.2564 314.101 22.2564 313.819 22.961Z" fill="black"/>
<path d="M297.332 21.1295C294.232 35.221 293.809 43.2531 297.191 57.3446C297.332 57.6264 296.768 57.7673 296.628 57.4855C291.696 43.394 292.118 33.3891 296.768 20.9886C297.191 20.284 297.473 20.284 297.332 21.1295Z" fill="black"/>
<path d="M277.886 103.142C277.886 103.142 267.035 88.7687 263.653 81.4411C260.271 74.1135 257.876 42.1259 264.64 41.1395C273.517 40.0121 278.59 58.1901 279.858 67.3496C279.858 67.3496 300.432 64.5313 306.914 76.7909C313.537 89.1914 277.886 103.142 277.886 103.142Z" fill="white"/>
<path d="M278.731 60.8677C279.013 61.995 279.295 62.9814 279.576 64.1087C279.858 65.236 280.14 66.2224 280.422 67.3497L279.999 67.0679C286.481 66.6452 292.822 67.7725 298.882 70.1681C301.841 71.2954 304.659 72.8454 307.337 74.8182C310.014 76.6501 312.128 79.0457 314.241 81.4412C311.846 79.3275 309.591 77.2138 306.773 75.6637L305.787 74.9592L304.8 74.3955C304.096 73.9728 303.391 73.6909 302.686 73.2682C301.277 72.5636 299.868 71.9999 298.459 71.4363C295.5 70.309 292.541 69.4635 289.44 68.8998C286.34 68.3362 283.24 67.9134 280.14 67.9134H279.858V67.6316C279.717 66.5042 279.576 65.3769 279.436 64.2496C279.013 63.1223 278.872 61.995 278.731 60.8677Z" fill="black"/>
<path d="M222.083 206.855L240.402 157.535C240.402 157.535 205.737 145.416 183.613 144.43C161.49 143.443 163.604 156.548 179.104 171.626C194.605 186.704 222.083 206.855 222.083 206.855Z" fill="#8AA1A0"/>
<path d="M223.069 204.178L222.506 205.869C222.224 206.151 221.942 206.292 221.66 206.433C221.519 206.292 221.237 206.151 220.956 205.869C221.66 205.446 222.365 204.883 223.069 204.178Z" fill="white"/>
<path d="M227.579 192.201L227.438 192.483C226.451 191.919 225.324 191.355 224.338 190.651C218.842 187.269 213.769 183.464 208.414 180.082C205.737 178.391 202.919 176.7 200.1 175.432C197.282 174.164 194.182 173.177 191.082 172.754C189.532 172.614 187.982 172.614 186.432 172.754C185.586 172.895 184.881 173.036 184.036 173.177C183.331 173.318 182.486 173.6 181.781 173.741C181.64 173.741 181.64 173.741 181.499 173.741C181.218 173.459 181.077 173.318 180.795 173.036C181.077 172.895 181.218 172.895 181.499 172.895C182.345 172.754 183.05 172.473 183.895 172.332C184.741 172.191 185.445 172.05 186.291 171.909C187.982 171.768 189.532 171.768 191.082 172.05C194.323 172.473 197.423 173.459 200.382 174.868C203.341 176.277 206.019 177.827 208.696 179.659C214.051 183.182 219.124 186.987 224.619 190.369C225.465 191.073 226.592 191.637 227.579 192.201Z" fill="white"/>
<path d="M230.679 156.831C227.438 164.299 218.983 184.732 215.46 198.823C215.46 198.964 215.742 199.105 215.742 198.964C220.533 187.832 228.565 164.722 231.102 156.972C231.242 156.831 230.679 156.69 230.679 156.831Z" fill="black"/>
<path opacity="0.1" d="M229.552 186.986L222.224 206.714C222.224 206.714 194.605 186.563 179.245 171.485C169.24 161.762 164.872 152.885 168.958 147.953L229.552 186.986Z" fill="black"/>
<path d="M226.593 309.864H83.0005C83.0005 309.864 109.352 189.664 139.507 154.294C140.212 153.449 140.916 152.744 141.621 152.04C141.762 151.899 141.903 151.758 142.044 151.617C144.58 148.94 147.399 146.826 150.076 145.417C150.64 145.135 151.062 144.853 151.626 144.571C163.181 139.216 175.441 143.726 184.318 151.194C187.136 153.59 218.842 194.878 221.661 210.66C224.056 224.611 214.756 239.548 214.756 239.548L226.593 309.864Z" fill="#8AA1A0"/>
<path d="M192.21 234.193C185.868 234.897 179.527 235.884 173.327 237.434C170.227 238.279 167.268 239.266 164.168 240.252C162.618 240.816 161.208 241.239 159.658 241.661C158.108 242.084 156.417 242.507 154.726 242.648C154.585 242.648 154.585 242.93 154.726 242.93C156.276 242.93 157.826 242.93 159.376 242.789C160.927 242.648 162.336 242.225 163.886 241.943C166.986 241.098 170.086 240.252 173.186 239.407C179.527 237.716 185.728 236.025 192.21 234.897C192.491 234.616 192.491 234.193 192.21 234.193Z" fill="black"/>
<path d="M207.992 239.689C202.778 239.266 197.423 238.984 192.209 239.125C189.532 239.125 186.996 239.407 184.318 239.689C183.05 239.83 181.782 239.97 180.513 240.111C179.104 240.252 177.836 240.675 176.427 240.816C176.286 240.816 176.286 241.098 176.427 241.098C177.695 240.957 179.104 241.098 180.373 241.098C181.641 241.098 183.05 240.957 184.318 240.957C186.996 240.816 189.532 240.816 192.209 240.675C197.423 240.393 202.778 240.252 207.992 240.252C208.274 240.111 208.274 239.689 207.992 239.689Z" fill="black"/>
<path d="M220.674 207.278C219.829 207.982 218.843 208.546 217.856 209.11C215.038 210.801 212.079 212.069 208.978 212.914C208.133 213.055 207.428 213.337 206.583 213.478C205.737 213.619 205.033 213.76 204.187 213.901C202.496 214.042 200.946 214.042 199.255 213.76C196.014 213.337 192.914 212.351 190.096 210.942C187.137 209.532 184.459 207.982 181.782 206.15C176.427 202.628 171.354 198.823 165.859 195.441C163.322 193.891 160.645 192.341 157.826 191.073C157.686 191.073 157.545 190.932 157.404 190.932C157.263 190.791 157.122 190.791 156.84 190.65C154.022 189.523 151.203 188.536 148.244 187.972C145.144 187.409 141.903 187.127 138.803 187.409L136.407 187.691L134.012 188.113C132.462 188.395 130.912 188.959 129.362 189.382C127.812 189.663 126.402 190.368 124.852 190.932C124.148 191.214 123.302 191.495 122.598 191.777L120.484 192.764C119.779 193.186 119.075 193.468 118.37 193.891L117.102 194.736C117.243 194.455 117.384 194.032 117.525 193.75C121.189 191.777 125.134 190.086 129.221 188.959C130.771 188.536 132.321 188.113 133.871 187.832L136.266 187.409L138.662 187.127C141.903 186.986 145.144 187.127 148.244 187.691C151.203 188.254 154.163 189.241 156.981 190.509C157.263 190.65 157.545 190.791 157.967 190.932C160.786 192.2 163.322 193.609 165.859 195.159C171.354 198.541 176.427 202.346 181.782 205.728C184.459 207.419 187.278 209.11 190.096 210.378C192.914 211.646 196.014 212.633 199.114 213.055C200.665 213.196 202.215 213.196 203.765 213.055C204.61 212.914 205.315 212.773 206.16 212.633C206.865 212.492 207.71 212.21 208.415 212.069C211.374 211.223 214.333 209.955 217.011 208.264C217.997 207.701 218.983 206.996 219.97 206.291C220.533 206.714 220.533 206.996 220.674 207.278Z" fill="white"/>
<path d="M203.906 177.545C202.637 176.84 201.369 176.136 200.101 175.572C197.283 174.304 194.182 173.317 191.082 172.895C189.532 172.754 187.982 172.754 186.432 172.895C185.587 173.036 184.882 173.176 184.037 173.317C183.332 173.458 182.487 173.74 181.782 173.881C178.682 174.726 175.864 175.995 173.186 177.686C167.691 180.927 163.322 185.577 158.954 190.227C158.672 190.509 158.531 190.791 158.249 190.932C158.249 191.073 158.108 191.073 157.967 191.214C154.022 195.582 149.935 199.95 145.144 203.614C140.071 207.56 133.73 210.096 127.389 210.66C122.034 211.364 116.82 210.66 111.606 209.955C111.747 209.673 111.747 209.532 111.888 209.251C117.102 209.814 122.175 210.378 127.389 209.673C130.489 209.251 133.589 208.546 136.548 207.419C139.508 206.291 142.185 204.6 144.721 202.769C149.372 199.387 153.317 195.018 157.263 190.791C157.263 190.65 157.404 190.65 157.545 190.509C157.826 190.227 158.108 189.804 158.531 189.523C162.899 184.872 167.409 180.222 173.045 176.84C175.864 175.149 178.823 173.881 181.923 173.036C182.768 172.895 183.473 172.613 184.318 172.472C185.164 172.331 185.869 172.19 186.714 172.049C188.405 171.908 189.955 171.908 191.505 172.19C194.746 172.613 197.846 173.599 200.806 175.008C201.792 175.431 202.778 175.995 203.624 176.417C203.483 176.84 203.624 177.122 203.906 177.545Z" fill="white"/>
<path d="M225.606 304.086C220.111 304.65 214.474 304.65 208.978 303.663C207.287 303.382 205.737 303.1 204.046 302.677L201.651 301.972L199.255 301.127C196.155 299.859 193.196 298.309 190.519 296.195C187.982 294.363 185.587 292.108 183.473 289.713C183.191 289.431 183.05 289.149 182.768 288.867C180.655 286.472 178.823 283.935 177.132 281.258C173.468 275.621 170.368 269.844 166.845 264.066C165.013 261.248 163.181 258.43 161.067 256.034C158.954 253.498 156.417 251.243 153.74 249.552C152.331 248.707 150.781 248.002 149.231 247.438C148.526 247.157 147.68 247.016 146.835 246.734C145.989 246.593 145.144 246.452 144.439 246.311C141.198 245.747 137.816 245.747 134.575 246.029C127.952 246.734 121.752 249.129 115.552 251.525C115.27 251.666 114.847 251.807 114.566 251.948C114.425 251.948 114.425 252.089 114.284 252.089C108.506 254.484 102.729 256.88 96.5284 258.007C96.3875 258.007 96.3875 258.007 96.2466 258.007C96.3875 257.584 96.5284 257.302 96.5284 256.88C102.306 255.752 107.943 253.357 113.579 251.102C113.72 251.102 113.72 250.961 113.861 250.961C114.284 250.82 114.706 250.539 115.129 250.398C121.329 247.861 127.671 245.607 134.434 244.902C137.816 244.62 141.198 244.62 144.58 245.184C145.426 245.325 146.271 245.466 147.117 245.747C147.962 246.029 148.808 246.17 149.512 246.452C151.062 247.016 152.612 247.72 154.022 248.707C156.84 250.538 159.376 252.793 161.49 255.471C163.604 258.007 165.436 260.825 167.268 263.644C170.79 269.28 173.891 275.34 177.413 280.835C179.104 283.513 180.936 286.049 183.05 288.445C183.191 288.585 183.191 288.726 183.332 288.867C183.473 289.008 183.614 289.149 183.755 289.29C185.868 291.686 188.123 293.799 190.659 295.631C193.337 297.604 196.296 299.154 199.396 300.422L201.792 301.268L204.187 301.831C205.737 302.254 207.428 302.395 209.119 302.818C210.81 303.241 212.36 303.241 214.051 303.382C214.897 303.382 215.742 303.522 216.588 303.522H219.124C219.97 303.522 220.815 303.522 221.661 303.522L224.197 303.241C224.761 303.241 225.184 303.1 225.747 303.1L225.606 304.086Z" fill="white"/>
<path d="M222.506 285.626C221.802 285.344 221.097 285.062 220.533 284.921C217.433 283.935 214.192 283.23 210.81 283.089C207.569 282.949 204.187 283.23 200.946 283.794C195.028 284.921 189.391 287.317 183.755 289.572C183.614 289.572 183.614 289.712 183.473 289.712C183.05 289.853 182.627 290.135 182.204 290.276C176.004 292.813 169.663 295.067 162.899 295.772C159.517 296.054 156.135 296.054 152.753 295.49C151.908 295.349 151.062 295.208 150.217 294.926C149.371 294.645 148.526 294.504 147.821 294.222C146.271 293.658 144.721 292.954 143.312 291.967C140.494 290.135 137.957 287.74 135.844 285.203C133.73 282.667 131.898 279.848 130.066 277.03C126.543 271.394 123.443 265.475 119.779 259.839C118.088 257.161 116.256 254.625 114.143 252.229C114.002 252.088 114.002 251.947 113.861 251.806C113.72 251.665 113.579 251.525 113.438 251.384C111.324 248.988 109.07 246.874 106.533 245.042C104.842 243.774 103.01 242.647 101.038 241.661C101.038 241.52 101.179 241.379 101.179 241.238C103.151 242.224 104.983 243.352 106.815 244.62C109.352 246.593 111.747 248.706 113.861 251.102C114.143 251.384 114.284 251.665 114.565 251.947C116.679 254.343 118.511 256.879 120.202 259.557C123.866 265.193 126.966 271.112 130.489 276.748C132.321 279.567 134.153 282.385 136.266 284.921C138.38 287.458 140.916 289.712 143.594 291.403C145.003 292.249 146.553 292.954 147.962 293.517C148.808 293.799 149.512 293.94 150.358 294.222C151.203 294.363 151.908 294.504 152.753 294.644C155.994 295.208 159.376 295.208 162.617 294.926C169.24 294.222 175.441 291.826 181.641 289.431C181.923 289.29 182.345 289.149 182.627 289.008C182.768 289.008 182.768 288.867 182.909 288.867C188.687 286.471 194.464 284.076 200.664 282.949C207.287 281.539 214.333 281.962 220.674 284.217C221.238 284.358 221.802 284.64 222.224 284.78L222.506 285.626Z" fill="white"/>
<path d="M130.912 161.622C102.729 201.36 66.0908 270.126 84.9733 282.808C115.834 303.664 200.946 309.159 220.392 309.723C228.847 309.864 240.261 254.062 234.061 247.58C227.861 241.097 138.803 244.62 137.675 239.125C136.971 236.025 147.962 207.982 153.458 174.163C159.799 135.411 138.803 150.489 130.912 161.622Z" fill="white"/>
<path d="M219.124 244.48C219.124 244.48 244.489 241.803 261.258 240.957C270.558 240.394 286.622 240.957 293.668 243.775C304.096 247.862 345.384 271.818 339.888 281.963C334.815 291.123 301.982 266.04 301.982 266.04C301.982 266.04 337.352 288.445 329.179 298.309C321.006 308.174 287.75 275.059 287.75 275.059C287.75 275.059 323.542 298.873 313.537 307.751C305.928 314.515 274.081 286.05 274.081 286.05C274.081 286.05 304.8 306.623 297.332 313.951C289.018 321.983 258.017 297.605 258.017 297.605C235.893 312.824 219.124 311.133 207.428 308.455C204.469 307.751 219.124 244.48 219.124 244.48Z" fill="white"/>
<path d="M290.145 257.585C294.373 260.122 298.741 262.517 302.687 265.335C306.773 268.154 310.578 271.113 314.383 274.354C323.542 282.245 328.051 288.586 327.769 288.164C320.16 279.568 305.928 269.14 301.982 266.322C298.036 263.503 294.091 260.403 290.145 257.585C290.004 257.585 290.004 257.444 290.145 257.585Z" fill="black"/>
<path d="M279.577 271.817C284.932 275.199 290.286 278.44 295.359 281.963C300.432 285.627 307.478 290.841 312.269 294.787C312.692 295.068 312.41 295.773 311.987 295.491C306.914 291.686 299.587 286.613 294.514 282.95C289.582 279.427 284.65 275.481 279.577 271.817Z" fill="black"/>
<path d="M268.444 282.527C276.758 287.318 284.227 293.659 291.414 300C291.836 300.282 291.414 300.423 290.991 300.141C283.522 294.223 277.604 289.432 268.304 282.95C268.022 282.668 268.163 282.386 268.444 282.527Z" fill="black"/>
<path d="M215.461 244.057C227.016 242.93 261.117 239.548 272.813 239.266C283.1 239.125 291.836 240.534 300.855 245.325C320.442 255.753 333.688 268.999 337.07 272.944C339.043 275.34 342.143 279.286 340.029 282.245C337.493 286.049 326.501 283.654 314.242 274.494C313.819 274.213 314.101 273.931 314.524 274.213C331.574 285.486 337.775 283.513 339.184 281.117C340.17 279.567 338.902 277.172 337.775 275.481C336.084 272.944 333.688 270.549 331.433 268.576C323.683 261.53 314.524 255.189 305.505 249.834C295.077 243.634 284.368 240.675 272.249 240.816C260.271 240.957 227.579 244.339 215.601 244.339C215.179 244.48 215.179 244.057 215.461 244.057Z" fill="black"/>
<path d="M330.588 293.095C329.602 289.995 327.065 287.318 325.092 284.922C322.556 281.963 319.738 279.004 316.779 276.468C316.638 276.327 316.497 276.468 316.638 276.608C319.315 279.286 321.851 281.822 324.106 284.782C325.374 286.332 326.502 288.023 327.488 289.714C328.474 291.405 329.602 293.236 329.461 295.209C329.038 299.014 324.247 299.437 321.288 298.732C319.315 298.309 317.483 297.464 315.792 296.618C313.96 295.773 310.437 293.518 308.887 292.391C308.746 292.25 308.183 292.391 308.465 292.532C313.115 296.196 321.851 303.805 328.052 300C330.306 298.591 331.434 295.773 330.588 293.095Z" fill="black"/>
<path d="M95.8237 203.05L145.285 220.806C145.285 220.806 156.981 186 157.826 163.876C158.672 141.753 145.426 144.007 130.63 159.649C115.552 175.29 95.8237 203.05 95.8237 203.05Z" fill="#8AA1A0"/>
<path d="M153.88 189.382C153.88 189.523 153.88 189.523 153.88 189.664C152.189 189.1 150.358 188.536 148.526 188.254C145.426 187.691 142.185 187.409 139.084 187.691L136.689 187.973L134.293 188.395C132.743 188.677 131.193 189.241 129.643 189.664C128.093 189.945 126.684 190.65 125.134 191.214C124.429 191.495 123.584 191.777 122.879 192.059L120.765 193.046C120.061 193.468 119.356 193.75 118.652 194.173L116.679 195.441C115.974 195.864 115.27 196.287 114.706 196.709L112.733 198.118C109.21 200.514 105.969 203.191 102.587 205.728L101.601 205.446C105.124 202.769 108.647 199.95 112.311 197.555C117.524 193.891 123.443 191.073 129.643 189.382C131.193 188.959 132.743 188.536 134.293 188.254L136.689 187.832L139.084 187.55C142.325 187.409 145.566 187.55 148.667 188.114C150.358 188.254 152.189 188.677 153.88 189.382Z" fill="white"/>
<path d="M152.471 195.864C152.33 196.427 152.19 197.132 152.049 197.696C149.935 199.809 147.68 201.782 145.285 203.614C140.212 207.56 133.871 210.096 127.529 210.66C124.007 211.083 120.625 210.942 117.102 210.66L114.143 209.673C118.511 210.096 123.02 210.519 127.248 209.814C130.348 209.392 133.448 208.687 136.407 207.56C139.366 206.432 142.044 204.741 144.58 202.91C147.398 200.796 149.935 198.4 152.471 195.864Z" fill="white"/>
<path d="M145.849 210.942C138.38 207.701 117.807 199.668 103.715 196.146C103.574 196.146 103.574 196.427 103.574 196.427C114.847 201.077 137.957 208.828 145.708 211.364C145.849 211.505 145.99 211.082 145.849 210.942Z" fill="black"/>
<path d="M155.431 192.201C154.444 193.892 153.599 195.582 152.894 197.414C153.74 193.61 154.585 189.664 155.149 185.718C155.149 185.578 155.008 185.578 154.867 185.718C151.485 197.133 147.962 208.406 144.862 219.961C143.594 219.961 142.326 219.82 141.058 219.679C140.776 219.679 140.776 219.961 141.058 219.961C142.467 220.243 143.735 220.665 145.144 221.229C145.426 221.37 145.849 221.37 145.99 220.947C148.385 214.465 150.358 207.701 152.049 200.937C152.613 199.951 153.035 198.824 153.458 197.837C154.304 196.005 155.008 194.173 155.431 192.201Z" fill="black"/>
<path d="M157.826 146.403C158.108 149.08 167.972 167.681 179.95 168.809C183.895 169.231 186.714 148.094 186.714 148.094L187.277 146.544L195.31 125.407L172.059 105.256L168.677 102.579C168.677 102.579 166.845 108.497 164.731 115.966C164.59 116.247 164.59 116.67 164.449 116.952C164.308 117.375 164.167 117.797 164.027 118.22C163.745 119.347 163.322 120.475 163.04 121.602C162.758 122.448 162.617 123.293 162.336 124.139C162.054 124.984 161.913 125.97 161.631 126.816C159.235 135.834 157.685 145.276 157.826 146.403Z" fill="white"/>
<path d="M164.59 115.966C168.395 134.284 181.218 143.303 187.278 146.544L195.31 125.407L172.059 105.256L168.677 102.579C168.677 102.579 166.845 108.497 164.59 115.966Z" fill="black"/>
<path d="M219.688 82.7093C229.411 121.179 207.428 131.325 199.114 133.298C191.646 135.13 165.717 140.625 152.189 103.424C138.662 66.2222 153.458 49.5943 170.367 44.3805C187.418 39.1666 210.105 44.2396 219.688 82.7093Z" fill="white"/>
<path d="M212.642 77.4953C211.655 77.6363 210.81 77.4953 209.964 77.4953C208.978 77.4953 208.132 77.6363 207.146 77.0726C206.723 76.7908 206.441 75.9453 206.723 75.3816C207.287 74.2543 208.696 73.8315 209.964 73.8315C211.373 73.8315 212.36 74.1134 213.487 74.818C214.474 75.6635 213.91 77.3544 212.642 77.4953Z" fill="black"/>
<path d="M187.981 83.2724C188.827 82.9906 189.672 82.5678 190.518 82.1451C191.504 81.7224 192.209 81.4405 192.773 80.4541C193.054 79.8904 192.913 79.0449 192.35 78.7631C191.223 77.9176 189.954 78.1994 188.827 78.7631C187.559 79.3268 186.713 80.0314 186.15 81.2996C185.445 82.4269 186.713 83.6951 187.981 83.2724Z" fill="black"/>
<path d="M194.605 91.4456C194.605 91.3047 194.464 91.5866 194.464 91.7275C195.169 94.2639 195.591 97.3641 193.478 98.9141V99.0551C196.437 97.9277 195.732 93.8412 194.605 91.4456Z" fill="black"/>
<path d="M191.646 89.3315C187.418 90.0361 189.109 98.6319 193.196 97.9274C197 97.2228 195.168 88.627 191.646 89.3315Z" fill="black"/>
<path d="M190.095 90.1772C189.391 90.8818 188.968 91.8682 187.982 92.15C186.995 92.4318 186.009 91.7273 185.163 91.0227C185.022 90.8818 185.022 91.0227 185.022 91.1636C185.304 92.8546 186.291 94.4046 188.123 94.2637C189.814 94.1228 190.659 92.4318 190.659 90.7408C190.659 90.3181 190.377 89.8954 190.095 90.1772Z" fill="black"/>
<path d="M208.978 87.7821C208.978 87.6412 209.26 87.923 209.26 87.923C209.683 90.6004 210.669 93.5596 213.205 93.9824C213.346 93.9824 213.346 94.1233 213.205 94.1233C210.246 94.4051 208.978 90.4595 208.978 87.7821Z" fill="black"/>
<path d="M210.81 84.5407C215.038 83.4134 217.01 91.8683 213.206 92.8547C209.401 94.1229 207.287 85.6681 210.81 84.5407Z" fill="black"/>
<path d="M212.642 84.6822C213.487 84.9641 214.333 85.6686 215.037 85.5277C216.024 85.3868 216.446 84.2595 216.869 83.2731C216.869 83.1322 217.01 83.2731 217.01 83.2731C217.433 84.8231 217.292 86.655 215.883 87.3596C214.474 87.9233 213.205 86.7959 212.36 85.3868C212.219 85.105 212.36 84.6822 212.642 84.6822Z" fill="black"/>
<path d="M199.255 113.006C199.819 113.711 200.523 114.556 201.51 114.697C202.496 114.838 203.623 114.415 204.469 114.133C204.61 114.133 204.61 114.133 204.61 114.274C203.905 115.261 202.355 115.824 201.087 115.543C199.819 115.261 199.255 114.133 199.114 113.006C198.973 112.865 199.114 112.865 199.255 113.006Z" fill="black"/>
<path d="M207.569 101.31C207.569 101.31 208.978 105.115 209.401 106.947C209.401 107.088 202.919 110.047 198.973 106.101C198.832 105.96 198.973 105.679 199.255 105.82C202.073 107.088 204.892 106.947 207.851 106.383C207.851 105.82 205.173 99.9011 205.455 99.9011C206.442 99.6193 208.555 99.7602 209.824 99.9011C207.146 91.869 203.06 84.4005 200.523 76.3684C200.382 76.0865 200.805 75.9456 200.946 76.0865C205.737 83.6959 209.119 92.8554 212.078 101.028C212.501 102.015 208.415 101.451 207.569 101.31Z" fill="black"/>
<path d="M208.555 106.946C208.555 106.946 207.569 109.906 205.455 111.597C204.609 112.16 203.764 112.724 202.637 112.724C200.382 112.865 199.677 111.033 199.537 109.201C199.396 107.792 199.677 106.383 199.677 106.383C199.677 106.383 203.482 108.356 208.555 106.946Z" fill="black"/>
<path d="M205.455 111.597C204.61 112.16 203.764 112.724 202.637 112.724C200.382 112.865 199.678 111.033 199.537 109.201C201.791 108.778 204.469 109.624 205.455 111.597Z" fill="#FF99BA"/>
<path d="M189.391 49.1717C189.391 49.1717 191.646 54.9492 190.096 59.4585C186.996 68.7589 176.145 67.6316 172.904 71.5772C169.945 75.241 171.918 81.864 169.24 85.5278C165.577 90.6007 159.517 89.4734 159.235 92.5735C158.954 95.6736 157.967 105.538 154.303 107.229C150.64 108.92 125.134 46.7762 176.004 42.6896C176.004 42.6896 182.627 39.0259 194.041 43.1124C206.583 47.6217 214.192 66.6452 214.192 66.6452C214.192 66.6452 213.91 66.3633 211.938 65.0951C209.26 63.2632 207.992 61.2904 206.16 60.1631C203.06 58.3312 201.651 59.3176 198.41 57.4857C193.478 54.8083 189.391 49.1717 189.391 49.1717Z" fill="black"/>
<path d="M188.264 46.353C189.391 48.7486 190.237 51.285 190.66 53.9624C191.223 56.4989 191.364 59.1763 190.519 61.5718C189.673 63.8265 187.559 65.6584 185.305 66.7857C183.05 67.913 180.373 68.4766 177.977 69.8858C176.709 70.5904 175.582 71.4359 174.877 72.845C174.173 74.1132 174.032 75.5224 173.891 76.9315C173.609 79.6089 173.468 82.1454 171.918 84.2591C170.509 86.3728 168.113 87.7819 165.436 87.9229C162.899 88.2047 159.94 87.7819 157.686 89.332C160.081 88.0638 162.899 88.7684 165.577 88.6274C168.395 88.6274 171.072 87.2183 172.763 84.9637C174.595 82.7091 174.877 79.7498 175.159 77.2134C175.3 75.9451 175.582 74.6769 176.145 73.5496C176.709 72.5632 177.695 71.7177 178.823 71.154C181.077 69.8858 183.614 69.3221 186.15 68.0539C187.419 67.4902 188.546 66.6448 189.532 65.6583C190.519 64.6719 191.364 63.5446 191.787 62.1355C192.632 59.4581 192.351 56.6398 191.646 53.9624C190.519 51.285 189.532 48.7486 188.264 46.353Z" fill="black"/>
<path d="M189.532 48.6074C190.237 51.003 191.364 53.2576 192.773 55.2304C194.182 57.3442 196.155 59.176 198.551 60.1625C199.819 60.7261 201.087 60.867 202.215 61.1488C203.342 61.4307 204.469 61.8534 205.174 62.6989C205.878 63.5444 206.724 64.6717 207.71 65.3763C208.697 66.0809 209.965 66.6445 211.092 66.9263C209.965 66.3627 208.838 65.799 208.133 64.9535C207.287 64.1081 206.724 63.1217 205.878 62.1352C205.033 61.0079 203.765 60.4443 202.496 60.1625C201.228 59.8806 200.101 59.7397 198.974 59.176C196.86 58.1896 195.028 56.6396 193.619 54.8077C192.069 52.8349 190.8 50.7211 189.532 48.6074Z" fill="black"/>
<path d="M190.096 107.51C184.459 108.215 178.822 105.115 176.709 99.619C174.031 93.1369 177.272 85.8094 183.754 83.132C190.236 80.4546 197.564 83.6956 200.241 90.1777C202.778 96.6598 199.678 103.987 193.196 106.665C192.068 107.088 191.082 107.369 190.096 107.51ZM186.854 83.9775C186.009 84.1184 185.023 84.2593 184.177 84.682C178.541 86.9367 175.863 93.2779 178.118 98.9144C180.372 104.551 186.855 107.228 192.35 104.974C197.987 102.719 200.664 96.378 198.41 90.7414C196.578 86.0912 191.787 83.4138 186.854 83.9775Z" fill="#8AA1A0"/>
<path d="M218.137 100.041C213.346 100.746 208.273 96.3777 206.723 89.8956C205.878 86.6546 206.019 83.4135 207.146 80.5952C208.273 77.7769 210.246 75.8041 212.783 75.2404C215.319 74.5358 217.996 75.3814 220.251 77.2133C222.506 79.0452 224.197 81.8634 225.042 85.1045C226.733 91.8684 224.056 98.4914 218.983 99.7596C218.701 100.041 218.419 100.041 218.137 100.041ZM213.769 76.9314C213.487 76.9314 213.346 76.9314 213.205 77.0723C211.232 77.636 209.682 79.0452 208.696 81.4407C207.71 83.8363 207.569 86.7954 208.414 89.6137C209.964 95.5322 214.474 99.3369 218.56 98.3505C222.647 97.3641 224.901 91.7274 223.351 85.809C222.647 82.9907 221.097 80.4543 219.124 78.7633C217.433 77.3541 215.46 76.6496 213.769 76.9314Z" fill="#8AA1A0"/>
<path d="M200.1 91.7276L198.691 90.7412C200.1 88.7684 203.905 85.5273 207.709 87.9229L206.864 89.332C203.341 87.0774 200.241 91.4458 200.1 91.7276Z" fill="#8AA1A0"/>
<path d="M146.13 108.779L144.439 108.356C144.58 107.651 146.271 100.746 149.794 99.1964C153.035 97.7873 175.581 94.2644 176.568 94.1235L176.849 95.8145C170.367 96.8009 153.035 99.7601 150.498 100.887C148.244 101.874 146.553 106.947 146.13 108.779Z" fill="#8AA1A0"/>
<path d="M158.39 102.015C158.39 102.015 147.821 91.1643 142.889 95.1099C137.816 99.0555 147.117 115.683 154.021 117.093C160.926 118.502 162.335 112.161 162.335 112.161L158.39 102.015Z" fill="white"/>
<path d="M145.707 99.7603C145.566 99.7603 145.566 99.9012 145.707 99.9012C150.498 101.029 153.598 104.833 155.994 108.92C154.303 107.511 152.33 106.806 150.357 108.779C150.217 108.92 150.357 109.061 150.498 109.061C152.33 108.356 153.739 108.497 155.149 109.765C156.276 110.611 156.98 111.879 157.826 113.006C158.108 113.429 158.812 113.006 158.53 112.584C158.53 112.584 158.53 112.584 158.53 112.443C157.826 106.806 152.048 99.3376 145.707 99.7603Z" fill="black"/>
<path d="M476.857 165.708C445.433 193.468 397.381 215.169 384.84 206.01C370.326 195.441 333.265 154.999 318.751 123.715C315.228 116.247 367.93 86.6549 370.608 91.7278C379.344 107.933 407.809 149.644 409.782 152.18C411.896 155.139 448.111 142.175 468.121 138.512C500.531 132.734 497.713 147.389 476.857 165.708Z" fill="#FBFBFB"/>
<path d="M323.401 128.084C322.556 127.38 311.001 116.67 305.364 109.483C301.137 104.129 289.441 88.3461 294.936 83.1323C298.6 79.6094 306.632 88.0643 312.41 93.8418C315.51 96.9419 321.147 99.9011 323.119 97.9283C326.501 94.4055 318.469 86.5142 312.269 81.7231C300.291 72.4228 281.127 61.2905 284.368 51.4265C285.636 47.6218 291.132 49.3127 297.191 52.272C289.3 46.4945 281.972 39.8715 283.1 35.644C283.804 33.2485 285.636 32.403 288.313 32.5439C286.622 30.4302 285.918 28.3164 286.904 26.2027C288.454 22.6799 292.964 22.2571 298.037 23.3844C297.755 22.398 297.896 21.5525 298.6 20.5661C304.519 11.9703 338.479 29.3029 344.397 37.6168C361.73 62.136 370.889 91.869 370.889 91.869C366.521 105.96 323.401 128.084 323.401 128.084Z" fill="#FBFBFB"/>
<path d="M328.615 73.9724C325.515 68.8994 321.147 64.2492 315.933 61.0082C309.732 57.2035 302.687 54.9489 296.205 51.7078C296.064 51.5669 295.923 51.8487 296.064 51.9897C299.305 53.3988 302.405 55.2307 305.646 56.7808C308.746 58.3308 311.987 59.74 314.946 61.431C320.442 64.672 325.092 68.7585 328.615 73.9724Z" fill="black"/>
<path d="M335.802 62.5581C331.574 57.2034 327.206 51.5668 321.851 47.1984C315.933 42.2664 308.605 39.589 301.419 36.9116C297.05 35.3616 292.682 33.8115 288.314 32.4023C288.173 32.4023 288.032 32.5433 288.173 32.6842C295.5 35.3616 302.828 38.3208 310.014 41.4209C316.778 44.3801 322.697 48.3257 327.629 53.5396C330.588 56.3579 333.124 59.458 335.802 62.5581C335.943 62.5581 335.802 62.699 335.802 62.5581Z" fill="black"/>
<path d="M343.411 51.7082C339.748 46.3534 336.507 41.5623 331.011 37.6167C323.683 32.4028 313.537 28.739 309.874 27.3299C305.928 25.9207 301.841 24.6525 297.755 23.3843C297.614 23.3843 297.473 23.6661 297.614 23.6661C306.633 26.6253 315.51 30.1482 323.965 34.2347C328.052 36.2075 331.856 38.6031 335.097 41.5623C338.197 44.6624 340.875 48.1853 343.411 51.7082Z" fill="black"/>
<path d="M435.992 200.796L416.687 149.08C416.687 149.08 453.043 136.398 476.293 135.271C499.544 134.143 497.29 147.953 481.085 163.876C465.02 179.659 435.992 200.796 435.992 200.796Z" fill="#253359"/>
<path d="M427.114 148.235C430.637 156.126 439.374 177.545 443.038 192.341C443.038 192.482 442.756 192.623 442.615 192.482C437.542 180.786 429.228 156.549 426.551 148.517C426.551 148.235 426.974 148.094 427.114 148.235Z" fill="black"/>
<path opacity="0.1" d="M428.242 179.941L435.992 200.655C435.992 200.655 464.88 179.518 481.226 163.736C491.653 153.59 496.304 144.149 492.076 139.076L428.242 179.941Z" fill="black"/>
<path d="M435.992 309.864H592.408C594.099 306.764 568.452 169.794 515.75 131.184C504.054 122.588 483.34 128.084 477.562 136.398C448.393 178.39 435.992 309.864 435.992 309.864Z" fill="#253359"/>
<path d="M590.857 298.168H437.26C437.683 294.222 438.247 289.572 438.951 284.217H588.039C589.307 289.431 590.153 294.222 590.857 298.168Z" fill="#253359"/>
<path d="M586.348 276.326H439.938C440.219 274.071 440.642 271.676 440.924 269.28H584.657C585.221 271.817 585.784 274.071 586.348 276.326Z" fill="#253359"/>
<path d="M525.332 162.608C556.756 190.368 604.808 212.069 617.349 202.91C631.864 192.341 668.501 128.507 680.056 92.5736C682.593 84.6824 622 70.3091 620.731 75.9457C616.645 95.3919 594.239 146.544 592.407 149.08C590.294 152.04 554.079 139.075 534.069 135.412C501.799 129.634 504.618 144.289 525.332 162.608Z" fill="#FBFBFB"/>
<path d="M632.146 85.2463C632.427 78.3414 635.246 40.5763 637.359 31.8396C641.305 15.7753 648.773 -0.00716564 655.678 0.133749C661.174 0.274664 661.597 10.1387 661.597 10.1387C661.597 10.1387 667.515 0.838332 674.138 3.09297C680.761 5.3476 676.534 16.4799 676.534 16.4799C676.534 16.4799 683.438 7.32041 689.78 10.1387C696.262 12.8161 690.061 23.2438 690.061 23.2438C690.061 23.2438 695.98 14.648 700.207 19.0163C705.421 24.3711 692.88 39.1671 690.202 48.7493C689.78 50.1585 687.243 73.6913 683.016 88.4873C680.902 95.8149 675.125 100.465 675.125 100.465L632.146 85.2463Z" fill="#FBFBFB"/>
<path d="M691.048 22.9615C681.748 33.812 679.634 40.1531 677.661 53.9628C677.661 54.2446 677.238 54.2446 677.238 53.9628C677.943 40.1531 679.493 31.8392 690.625 22.3979C691.189 22.1161 691.471 22.5388 691.048 22.9615Z" fill="black"/>
<path d="M677.379 15.9162C669.77 28.7395 667.938 35.6443 665.965 50.2994C665.965 50.4403 665.542 50.4403 665.542 50.2994C666.247 35.7852 667.374 27.4712 676.675 15.6344C677.097 15.0707 677.802 15.3526 677.379 15.9162Z" fill="black"/>
<path d="M661.738 10.5614C655.679 23.6665 653.424 31.2759 653.706 45.6492C653.706 45.931 653.283 46.0719 653.142 45.6492C651.451 30.994 653.988 21.4118 661.315 10.2796C661.738 9.7159 662.02 9.71589 661.738 10.5614Z" fill="black"/>
<path d="M625.1 85.9509C625.1 85.9509 617.772 69.7457 616.081 61.8545C614.39 53.9633 619.041 22.3983 625.805 23.1029C634.682 23.8075 635.669 42.5492 634.964 51.8495C634.964 51.8495 655.538 53.6814 659.06 66.9274C662.583 80.1734 625.1 85.9509 625.1 85.9509Z" fill="#FBFBFB"/>
<path d="M635.105 45.0854C635.105 46.2128 635.246 47.3401 635.246 48.4674C635.246 49.5947 635.387 50.722 635.387 51.8494L635.105 51.4266C641.446 52.413 647.505 54.9495 652.719 58.4724C655.397 60.3042 657.792 62.418 659.906 64.8135C662.02 67.2091 663.711 69.8865 665.12 72.7048C663.288 70.1683 661.456 67.6318 659.201 65.3772L658.356 64.5317L657.51 63.8271C656.947 63.2635 656.383 62.8407 655.819 62.2771C654.551 61.2907 653.424 60.4452 652.015 59.5997C649.478 57.9087 646.66 56.3586 643.842 55.2313C641.023 53.9631 638.064 52.9767 634.964 52.2721L634.682 52.1312V51.8494C634.682 50.722 634.823 49.5947 634.964 48.4674C634.823 47.3401 634.964 46.2128 635.105 45.0854Z" fill="black"/>
<path d="M566.198 197.696L585.503 145.98C585.503 145.98 549.147 133.298 525.896 132.17C502.645 131.043 504.9 144.853 521.105 160.776C537.31 176.559 566.198 197.696 566.198 197.696Z" fill="#253359"/>
<path d="M575.075 145.135C571.552 153.026 562.816 174.445 559.152 189.241C559.152 189.382 559.434 189.523 559.575 189.382C564.648 177.686 572.962 153.449 575.639 145.417C575.639 145.135 575.216 144.994 575.075 145.135Z" fill="black"/>
<path d="M568.029 191.636C567.748 191.777 565.775 196.145 565.775 196.145C565.211 195.582 550.133 184.168 547.738 182.477C542.947 178.954 538.015 175.854 533.083 172.613C532.942 172.472 532.801 172.754 532.942 172.894C536.887 175.995 540.692 179.095 544.497 182.054C543.792 181.772 543.088 181.49 542.242 181.068C540.692 180.363 539.283 179.658 537.874 178.954C537.733 178.954 537.592 179.095 537.733 179.236C539.424 180.504 541.256 181.49 543.228 182.195C544.074 182.477 544.919 182.758 545.765 183.04C546.047 183.322 546.47 183.604 546.751 183.745C549.006 185.436 565.916 197.836 566.057 197.695C566.057 197.695 567.889 193.186 568.17 191.918C568.452 191.636 568.17 191.495 568.029 191.636Z" fill="black"/>
<path d="M478.548 132.452C474.462 135.834 470.375 148.657 472.63 156.971C474.885 165.426 479.394 170.781 487.003 170.076C494.613 169.372 509.409 163.594 518.991 146.403C528.573 129.211 498.558 115.683 478.548 132.452Z" fill="#DBDBDB"/>
<path d="M487.567 160.213C497.008 160.776 510.113 144.289 514.341 132.03C514.623 131.184 506.027 101.028 505.04 94.8281L468.121 110.892C468.121 110.892 474.18 123.152 476.012 133.861C476.012 134.848 478.548 159.649 487.567 160.213Z" fill="#FBFBFB"/>
<path d="M509.408 112.302C502.504 133.721 483.903 138.512 476.716 139.498C476.153 136.539 476.012 134.284 475.871 134.003C474.039 123.293 467.979 111.034 467.979 111.034L504.899 94.9692C505.463 97.6466 507.436 104.833 509.408 112.302Z" fill="black"/>
<path d="M512.509 50.7213C518.286 63.9673 515.609 104.692 506.731 114.697C494.049 129.211 470.798 133.157 457.975 117.233C445.433 101.873 449.942 48.8895 459.947 39.5891C474.884 25.9203 504.054 30.9933 512.509 50.7213Z" fill="#FBFBFB"/>
<path d="M475.73 79.3275C475.73 79.1866 475.871 79.4684 475.871 79.6093C475.589 82.2867 475.73 85.5277 478.266 86.5141C478.407 86.5141 478.266 86.655 478.266 86.655C475.307 86.0914 475.025 81.8639 475.73 79.3275Z" fill="black"/>
<path d="M478.407 76.6504C482.775 76.6504 482.634 85.3871 478.548 85.528C474.461 85.528 474.743 76.6504 478.407 76.6504Z" fill="black"/>
<path d="M460.652 79.3275C460.652 79.1866 460.37 79.4684 460.37 79.6093C460.37 82.2867 459.947 85.5277 457.411 86.3732C457.27 86.3732 457.27 86.5141 457.411 86.5141C460.511 86.2323 461.075 82.0049 460.652 79.3275Z" fill="black"/>
<path d="M458.256 76.5093C453.888 76.0865 453.324 84.9641 457.411 85.3869C461.357 85.6687 461.92 76.7911 458.256 76.5093Z" fill="black"/>
<path d="M481.93 72.7045C480.662 72.4227 479.676 71.859 478.548 71.4363C477.28 70.8726 476.153 70.5908 475.307 69.4635C474.884 68.7589 475.025 67.6316 475.73 67.2088C477.139 66.0815 478.83 66.2224 480.38 66.7861C482.071 67.3498 483.339 68.3362 484.185 69.8862C485.171 71.2954 483.621 73.1273 481.93 72.7045Z" fill="black"/>
<path d="M454.874 71.859C456.143 71.7181 457.27 71.2954 458.397 71.0135C459.806 70.7317 460.934 70.5908 461.779 69.4635C462.343 68.8998 462.202 67.7725 461.779 67.2089C460.652 65.9406 458.82 65.9406 457.129 66.2225C455.297 66.6452 454.029 67.3498 452.902 68.7589C451.915 70.1681 453.324 72.1409 454.874 71.859Z" fill="black"/>
<path d="M478.407 104.833C477.703 105.397 476.998 106.383 476.012 106.383C475.025 106.383 473.898 105.961 473.053 105.679C472.912 105.679 472.912 105.679 472.912 105.82C473.616 106.947 475.025 107.652 476.294 107.37C477.562 107.229 478.125 106.102 478.548 104.974C478.83 104.833 478.548 104.692 478.407 104.833Z" fill="black"/>
<path d="M475.73 96.5188C474.18 98.9143 471.784 100.183 469.389 100.605C468.261 100.746 467.134 100.746 466.007 100.746C465.725 100.746 465.584 100.746 465.302 100.605C465.161 100.605 464.879 100.605 464.738 100.464C464.457 100.464 464.316 100.183 464.175 99.9007C464.175 99.7598 464.175 99.7598 464.175 99.6189V99.3371C464.175 97.2234 464.457 93.9823 464.457 93.9823C463.611 94.4051 459.666 96.096 459.806 94.9687C460.511 85.8093 461.356 75.6634 464.034 66.7858C464.175 66.5039 464.598 66.5039 464.598 66.9267C464.175 75.6634 462.343 84.4001 461.779 93.2778C463.047 92.855 465.161 92.0095 466.289 92.0095C466.57 92.1505 465.584 98.2098 465.725 99.1962C465.725 99.1962 465.725 99.1962 465.725 99.3371C469.248 99.9007 471.925 98.9143 475.448 96.5188C475.73 96.096 475.871 96.3779 475.73 96.5188Z" fill="black"/>
<path d="M467.275 99.6192C467.275 99.6192 469.107 102.156 471.643 103.142C472.63 103.565 473.616 103.706 474.602 103.424C476.857 102.86 476.857 100.887 476.575 99.1964C476.293 97.7873 475.589 96.519 475.589 96.519C475.589 96.519 472.489 99.3374 467.275 99.6192Z" fill="black"/>
<path d="M471.643 103.142C472.629 103.565 473.616 103.706 474.602 103.424C476.857 102.86 476.857 100.887 476.575 99.1963C474.32 99.3372 471.925 100.887 471.643 103.142Z" fill="#FF99BA"/>
<path opacity="0.2" d="M515.468 79.4686C512.79 78.9049 506.872 69.1818 504.336 65.2362C501.658 61.1497 501.658 41.5625 501.658 37.0532C506.308 40.1533 509.972 44.3808 512.368 49.5947C515.045 55.7949 516.031 67.4908 515.468 79.4686Z" fill="black"/>
<path d="M466.571 51.0036C469.671 54.8083 474.462 56.922 479.253 56.3584C484.044 55.7947 488.835 52.6946 490.667 48.1853C490.667 48.0444 490.949 48.1853 490.808 48.3262C488.835 53.1173 484.749 57.063 479.253 57.6266C474.18 58.1903 468.966 55.6538 466.148 51.4263C466.148 51.0036 466.43 50.8627 466.571 51.0036Z" fill="black"/>
<path d="M482.494 16.6205C490.667 17.1841 497.995 21.9752 500.813 27.6118C502.504 31.1347 502.645 34.5166 501.94 38.0395C501.94 38.1804 501.658 38.1804 501.658 38.0395C502.363 32.5438 499.826 26.0618 494.049 21.9752C488.412 18.0296 480.944 16.6205 474.321 18.8751C470.798 20.0024 467.98 22.1161 466.43 24.6526C466.289 24.9344 465.584 24.7935 465.725 24.3708C468.262 19.4388 475.166 16.1977 482.494 16.6205Z" fill="black"/>
<path d="M434.301 32.5442C435.71 28.5986 438.669 25.2166 442.333 23.1029C447.547 20.1437 453.184 20.8483 458.82 21.6938C458.961 21.6938 458.961 21.9756 458.82 21.9756C454.029 21.271 449.097 20.9892 444.588 22.962C440.924 24.653 437.824 27.6122 435.992 31.276C432.328 38.8854 435.147 48.6085 442.333 53.1178C446.42 55.6542 451.493 56.3588 456.143 55.0906C456.284 55.0906 456.425 55.3724 456.284 55.3724C447.829 58.0498 438.247 53.8223 434.724 45.6493C433.033 41.4218 432.751 36.7717 434.301 32.5442Z" fill="black"/>
<path d="M514.763 57.9084C514.763 57.9084 523.077 43.5351 516.877 34.7983C513.354 29.8663 501.095 30.1482 501.095 30.1482C501.095 30.1482 497.431 22.9615 487.285 20.2841C477.139 17.6067 464.739 23.1024 464.739 23.1024C464.739 23.1024 455.156 17.184 445.856 22.116C432.892 28.8799 433.878 48.3261 446.42 54.9491C455.297 59.5993 467.698 52.1308 467.698 52.1308C468.825 52.2718 480.662 60.0221 490.103 49.5944C490.103 49.5944 497.29 56.3583 504.054 51.9899C504.054 51.9899 507.154 58.7538 514.763 57.9084Z" fill="black"/>
<path d="M507.717 84.1183C507.717 84.1183 515.468 70.3087 521.668 72.9861C527.868 75.6634 522.795 94.9688 516.172 98.2098C509.549 101.451 506.449 95.3915 506.449 95.3915L507.717 84.1183Z" fill="#FBFBFB"/>
<path d="M520.118 78.4819C520.259 78.4819 520.259 78.6229 520.118 78.6229C515.468 81.0184 513.354 85.8095 512.086 90.6006C513.354 88.6278 515.186 87.5005 517.722 89.0505C517.863 89.1915 517.722 89.3323 517.581 89.3323C515.609 89.0505 514.199 89.6142 512.931 91.3052C512.086 92.5734 511.522 93.9826 510.958 95.3917C510.818 95.8145 509.972 95.6735 510.113 95.1099V94.9689C509.69 88.7687 513.636 79.7502 520.118 78.4819Z" fill="black"/>
<path d="M782.643 221.793L791.661 220.806C791.802 218.27 792.225 215.874 793.07 213.761C796.17 204.883 803.216 197.415 808.43 190.087C803.498 197.274 798.848 206.151 796.593 214.888C796.029 216.72 795.889 218.552 795.889 220.384L801.525 219.82C801.525 214.324 802.652 209.11 805.189 204.178C805.33 204.038 805.471 204.178 805.471 204.319C803.498 209.251 803.216 214.324 803.639 219.538L852.677 214.324C853.241 209.956 853.382 205.306 853.241 200.797C853.241 200.233 853.945 200.233 853.945 200.797C854.227 205.306 854.227 209.815 853.945 214.183L858.032 213.761C858.173 206.151 857.609 198.683 855.777 190.651C855.777 190.369 856.059 190.228 856.2 190.51C858.314 197.837 859.864 205.729 860.287 213.479L894.247 209.956C891.851 205.165 890.02 200.092 888.469 195.16C888.329 194.737 888.892 194.596 889.033 195.019C890.865 200.515 893.402 205.165 896.079 209.815L901.152 209.251C896.643 200.937 893.261 192.201 891.992 182.9C891.992 182.478 892.556 182.478 892.556 182.759C894.388 192.764 899.884 200.797 905.379 208.829L918.203 207.56C913.271 200.092 905.097 193.469 903.406 184.45C901.575 174.164 910.734 168.668 912.989 159.931C916.793 145.135 908.761 134.848 898.897 125.548C889.879 116.952 890.02 106.384 887.201 94.8286C885.088 86.3737 882.128 76.9324 877.055 69.7458C861.555 47.4812 836.895 52.4133 836.895 52.6951C830.835 53.2588 825.481 55.2316 820.83 58.6135C820.549 58.7544 820.267 59.0363 819.844 59.3181C814.912 63.2637 810.825 68.7594 807.725 75.8051C807.725 75.8051 807.725 75.8051 807.725 75.946C806.88 77.9188 806.034 80.0325 805.33 82.2872C804.062 86.2328 804.202 91.4467 803.357 97.506C803.357 97.6469 803.357 97.7878 803.357 97.7878C802.089 106.384 798.989 116.529 788.138 126.253C775.174 137.667 779.965 154.436 791.943 170.782C797.016 177.687 797.439 182.337 795.889 186.423C795.607 186.987 795.466 187.41 795.184 187.973C792.788 192.483 788.138 196.71 785.179 202.91C782.361 208.688 781.938 215.17 782.643 221.793Z" fill="black"/>
<path d="M858.455 54.3865C868.741 59.1776 877.055 67.6325 881.424 79.0466C884.806 87.7833 885.651 97.3655 889.879 105.82C893.824 113.712 900.447 119.489 905.943 126.253C913.13 135.131 917.921 146.263 913.13 157.113C910.17 163.877 902.984 170.923 903.829 179.237C904.816 188.96 913.834 197.979 918.907 205.729C919.189 206.152 918.625 206.574 918.343 206.152C911.579 197.415 900.165 186.001 903.125 173.882C904.534 168.246 907.916 163.877 910.452 159.086C915.525 149.645 913.834 140.063 907.775 131.044C899.602 118.925 889.174 111.316 885.088 96.3791C882.692 87.7833 881.424 78.9057 876.492 71.2963C871.982 64.1096 865.641 58.6139 858.314 55.0911C857.891 54.8092 858.173 54.2456 858.455 54.3865Z" fill="black"/>
<path d="M788.843 200.374C792.225 195.019 796.734 190.932 794.197 183.323C792.506 177.968 788.561 173.6 785.743 168.95C778.697 157.395 774.187 142.599 779.965 129.916C783.206 122.73 789.124 120.757 794.056 115.261C799.975 108.779 801.807 99.056 803.357 90.3193C805.752 77.0733 808.712 61.8545 822.239 58.0498C822.38 58.0498 822.38 58.1907 822.239 58.1907C805.189 64.1091 806.457 86.2328 802.23 101.874C800.82 107.229 798.707 112.302 795.043 116.248C789.406 122.448 782.361 124.843 779.683 134.144C777.288 142.881 778.979 152.181 782.642 160.636C785.743 167.822 791.238 173.741 794.197 180.927C796.029 185.296 796.593 189.805 794.62 193.892C793.07 197.133 790.252 199.387 788.561 202.628C786.306 206.856 785.602 211.647 786.024 216.72C786.024 217.284 785.32 217.143 785.32 216.72C784.756 210.661 785.743 205.165 788.843 200.374Z" fill="black"/>
<path d="M835.345 182.055C797.72 200.656 730.645 215.029 713.031 197.978C700.066 185.437 685.552 149.926 677.661 113.007C675.97 104.974 729.94 77.3551 731.349 82.9917C736.422 102.297 750.091 154.858 751.641 157.677C753.473 160.777 793.493 159.227 813.785 158.381C848.872 156.69 861.696 168.95 835.345 182.055Z" fill="white"/>
<path d="M681.184 117.657C680.479 116.811 670.193 104.975 665.401 97.0833C661.879 91.3058 652.156 74.2551 658.074 69.7458C662.16 66.6457 669.065 75.9461 674.138 82.4282C676.816 85.8101 682.17 89.4739 684.284 87.642C688.089 84.5419 681.043 75.6643 675.406 70.1686C664.697 59.6 646.942 46.354 651.169 36.7718C652.86 33.2489 658.074 35.3626 663.851 39.1673C656.665 32.5443 650.183 25.0759 651.874 20.9893C652.86 18.7347 654.833 18.0301 657.369 18.4529C655.96 16.1982 655.397 13.9436 656.665 11.9708C658.638 8.58883 663.006 8.72975 667.938 10.5616C667.797 9.57523 668.079 8.72975 668.783 7.74334C675.688 -0.00696945 707.394 20.9893 712.326 30.0079C726.699 56.3589 732.336 86.9375 732.336 86.9375C726.699 100.747 681.184 117.657 681.184 117.657Z" fill="white"/>
<path d="M692.739 64.5321C690.203 59.0365 686.539 53.9635 681.748 50.1588C676.111 45.6496 669.206 42.5494 663.147 38.6038C663.006 38.4629 662.865 38.7447 663.006 38.8857C666.106 40.7176 668.925 42.8313 672.025 44.8041C674.984 46.636 677.943 48.4679 680.761 50.5816C685.693 54.2454 689.78 59.0365 692.739 64.5321Z" fill="black"/>
<path d="M701.194 53.964C697.671 48.0455 694.007 42.1271 689.075 37.0542C683.862 31.5585 676.816 28.0357 669.911 24.5128C665.824 22.3991 661.597 20.4263 657.511 18.4534C657.37 18.3125 657.088 18.5944 657.37 18.7353C664.415 22.2581 671.32 26.0628 678.084 30.0085C684.425 33.6722 689.78 38.3224 694.148 44.0999C696.685 47.2001 698.939 50.7229 701.194 53.964C701.335 54.1049 701.194 54.1049 701.194 53.964Z" fill="black"/>
<path d="M710.072 44.0997C706.971 38.3222 704.435 33.2493 699.362 28.5991C692.739 22.5398 683.016 17.7487 679.493 15.9168C675.688 14.0849 671.884 12.253 667.938 10.562C667.797 10.562 667.656 10.7029 667.797 10.8439C676.393 14.7895 684.707 19.4396 692.739 24.3717C696.544 26.7672 700.067 29.5855 702.885 32.9675C705.703 36.4903 707.817 40.295 710.072 44.0997Z" fill="black"/>
<path d="M753.333 157.395L793.916 203.333C793.916 203.333 824.494 192.905 848.027 179.096C871.56 165.286 849.577 153.59 812.658 154.154C775.879 154.717 753.333 157.395 753.333 157.395Z" fill="#2C2AAB"/>
<path d="M805.612 196.569C797.58 186 788.702 176.136 779.684 166.413C777.147 163.595 774.47 160.918 771.792 158.381C771.651 158.24 771.651 158.381 771.651 158.522C775.738 163.736 780.106 168.668 784.475 173.741C788.843 178.814 793.211 183.746 797.721 188.678C800.257 191.496 802.793 194.174 805.33 196.992C805.471 196.851 805.753 196.71 805.612 196.569Z" fill="black"/>
<path opacity="0.1" d="M848.027 179.095C824.494 192.905 793.916 203.332 793.916 203.332L772.638 179.377C772.638 179.377 832.526 159.649 850.704 160.072C860.146 164.581 860.991 171.486 848.027 179.095Z" fill="black"/>
<path d="M944.131 310.005L790.534 309.582L798.988 256.739C798.988 256.739 786.87 241.943 789.124 226.02C791.661 208.546 823.226 164.158 825.903 161.622C836.613 151.617 847.886 149.785 858.736 153.449C909.043 185.014 944.131 310.005 944.131 310.005Z" fill="#2C2AAB"/>
<path d="M793.634 290.136C794.197 290.559 794.902 290.981 795.748 290.981C797.438 290.981 798.848 289.572 798.848 287.881C798.848 286.19 797.438 284.781 795.748 284.781C795.325 284.781 794.902 284.922 794.479 285.063L794.338 285.768C794.761 285.486 795.184 285.345 795.748 285.345C797.157 285.345 798.284 286.472 798.284 288.022C798.284 289.431 797.157 290.559 795.748 290.559C794.902 290.559 794.197 290.136 793.775 289.572L793.634 290.136ZM821.676 276.467C821.676 278.158 823.085 279.567 824.776 279.567C826.467 279.567 827.876 278.158 827.876 276.467C827.876 274.776 826.467 273.367 824.776 273.367C822.944 273.367 821.676 274.776 821.676 276.467ZM822.099 276.467C822.099 275.058 823.226 273.931 824.635 273.931C826.044 273.931 827.171 275.058 827.171 276.467C827.171 277.876 826.044 279.004 824.635 279.004C823.367 279.004 822.099 277.876 822.099 276.467ZM797.157 225.597C797.157 227.288 798.566 228.697 800.257 228.697C801.948 228.697 803.357 227.288 803.357 225.597C803.357 223.906 801.948 222.497 800.257 222.497C798.566 222.497 797.157 223.906 797.157 225.597ZM797.579 225.597C797.579 224.188 798.707 223.061 800.116 223.061C801.525 223.061 802.652 224.188 802.652 225.597C802.652 227.006 801.525 228.133 800.116 228.133C798.848 228.274 797.579 227.006 797.579 225.597ZM909.748 304.65C909.748 306.341 911.157 307.75 912.848 307.75C914.539 307.75 915.948 306.341 915.948 304.65C915.948 302.959 914.539 301.55 912.848 301.55C911.157 301.55 909.748 302.959 909.748 304.65ZM910.311 304.65C910.311 303.241 911.439 302.114 912.848 302.114C914.257 302.114 915.384 303.241 915.384 304.65C915.384 306.059 914.257 307.187 912.848 307.187C911.439 307.328 910.311 306.059 910.311 304.65ZM877.901 294.363C877.901 296.054 879.31 297.464 881.001 297.464C882.692 297.464 884.101 296.054 884.101 294.363C884.101 292.672 882.692 291.263 881.001 291.263C879.31 291.263 877.901 292.672 877.901 294.363ZM878.465 294.363C878.465 292.954 879.592 291.827 881.001 291.827C882.41 291.827 883.678 292.954 883.678 294.363C883.678 295.773 882.551 296.9 881.001 296.9C879.592 297.041 878.465 295.773 878.465 294.363ZM901.997 215.31C901.997 217.001 903.406 218.41 905.097 218.41C906.366 218.41 907.352 217.706 907.916 216.719C907.775 216.578 907.775 216.297 907.634 216.015C907.352 217.001 906.366 217.847 905.238 217.847C903.829 217.847 902.702 216.719 902.702 215.31C902.702 213.901 903.829 212.774 905.238 212.774C905.52 212.774 905.802 212.774 905.943 212.915C905.802 212.774 905.802 212.492 905.661 212.351C905.52 212.351 905.379 212.351 905.238 212.351C903.406 212.21 901.997 213.619 901.997 215.31ZM893.12 239.266C893.12 240.957 894.529 242.366 896.22 242.366C897.911 242.366 899.32 240.957 899.32 239.266C899.32 237.575 897.911 236.166 896.22 236.166C894.529 236.166 893.12 237.575 893.12 239.266ZM893.683 239.266C893.683 237.857 894.811 236.729 896.22 236.729C897.629 236.729 898.756 237.857 898.756 239.266C898.756 240.675 897.629 241.802 896.22 241.802C894.811 241.802 893.683 240.675 893.683 239.266ZM867.473 174.304C867.473 175.995 868.882 177.404 870.573 177.404C872.264 177.404 873.673 175.995 873.673 174.304C873.673 172.613 872.264 171.204 870.573 171.204C868.882 171.063 867.473 172.472 867.473 174.304ZM867.896 174.304C867.896 172.895 869.023 171.768 870.573 171.768C871.982 171.768 873.11 172.895 873.11 174.304C873.11 175.713 871.982 176.84 870.573 176.84C869.164 176.84 867.896 175.713 867.896 174.304ZM864.232 228.415C864.232 230.106 865.641 231.515 867.332 231.515C869.023 231.515 870.432 230.106 870.432 228.415C870.432 226.724 869.023 225.315 867.332 225.315C865.641 225.315 864.232 226.724 864.232 228.415ZM864.796 228.415C864.796 227.006 865.923 225.879 867.332 225.879C868.741 225.879 869.869 227.006 869.869 228.415C869.869 229.824 868.741 230.952 867.332 230.952C865.923 231.093 864.796 229.965 864.796 228.415ZM837.599 167.258C837.599 168.949 839.008 170.358 840.699 170.358C842.39 170.358 843.799 168.949 843.799 167.258C843.799 165.567 842.39 164.158 840.699 164.158C839.008 164.158 837.599 165.567 837.599 167.258ZM838.163 167.258C838.163 165.849 839.29 164.722 840.699 164.722C842.109 164.722 843.236 165.849 843.236 167.258C843.236 168.667 842.109 169.795 840.699 169.795C839.29 169.795 838.163 168.667 838.163 167.258ZM813.644 180.363C813.644 182.054 815.053 183.463 816.744 183.463C818.435 183.463 819.844 182.054 819.844 180.363C819.844 178.672 818.435 177.263 816.744 177.263C815.053 177.263 813.644 178.672 813.644 180.363ZM814.207 180.363C814.207 178.954 815.335 177.827 816.744 177.827C818.153 177.827 819.28 178.954 819.28 180.363C819.28 181.772 818.153 183.041 816.744 183.041C815.335 182.9 814.207 181.772 814.207 180.363ZM824.212 301.55C824.212 303.241 825.621 304.65 827.312 304.65C829.003 304.65 830.413 303.241 830.413 301.55C830.413 299.859 829.003 298.45 827.312 298.45C825.621 298.45 824.212 299.859 824.212 301.55ZM824.776 301.55C824.776 300.141 825.903 299.014 827.312 299.014C828.722 299.014 829.849 300.141 829.849 301.55C829.849 302.959 828.722 304.087 827.312 304.087C825.903 304.087 824.776 302.959 824.776 301.55ZM852.818 281.117C852.818 282.808 854.227 284.218 855.918 284.218C857.609 284.218 859.018 282.808 859.018 281.117C859.018 279.426 857.609 278.017 855.918 278.017C854.227 278.017 852.818 279.426 852.818 281.117ZM853.241 281.117C853.241 279.708 854.368 278.581 855.777 278.581C857.186 278.581 858.314 279.708 858.314 281.117C858.314 282.527 857.186 283.654 855.777 283.654C854.368 283.795 853.241 282.527 853.241 281.117ZM818.998 243.634C818.998 245.325 820.408 246.734 822.099 246.734C823.79 246.734 825.199 245.325 825.199 243.634C825.199 241.943 823.79 240.534 822.099 240.534C820.408 240.393 818.998 241.802 818.998 243.634ZM819.562 243.634C819.562 242.225 820.689 241.098 822.099 241.098C823.508 241.098 824.635 242.225 824.635 243.634C824.635 245.043 823.508 246.171 822.099 246.171C820.689 246.171 819.562 245.043 819.562 243.634ZM815.898 205.305C815.898 206.996 817.307 208.405 818.998 208.405C820.689 208.405 822.099 206.996 822.099 205.305C822.099 203.614 820.689 202.205 818.998 202.205C817.307 202.205 815.898 203.614 815.898 205.305ZM816.462 205.305C816.462 203.896 817.589 202.769 818.998 202.769C820.408 202.769 821.535 203.896 821.535 205.305C821.535 206.714 820.408 207.842 818.998 207.842C817.589 207.842 816.462 206.714 816.462 205.305ZM796.452 253.216C796.593 253.357 796.593 253.498 796.734 253.639C796.875 253.639 797.157 253.498 797.298 253.498C798.707 253.498 799.834 254.625 799.834 256.035C799.834 257.021 799.27 257.726 798.566 258.289L798.425 258.994C799.552 258.571 800.257 257.444 800.257 256.176C800.257 254.485 798.848 253.075 797.157 253.075C797.016 253.075 796.734 253.075 796.452 253.216ZM835.063 222.779C835.063 224.47 836.472 225.879 838.163 225.879C839.854 225.879 841.263 224.47 841.263 222.779C841.263 221.088 839.854 219.679 838.163 219.679C836.472 219.679 835.063 221.088 835.063 222.779ZM835.626 222.779C835.626 221.37 836.754 220.242 838.163 220.242C839.572 220.242 840.699 221.37 840.699 222.779C840.699 224.188 839.572 225.315 838.163 225.315C836.754 225.315 835.626 224.188 835.626 222.779ZM915.243 256.176C915.243 257.866 916.652 259.276 918.343 259.276C920.034 259.276 921.444 257.866 921.444 256.176C921.444 254.485 920.034 253.075 918.343 253.075C916.652 253.075 915.243 254.485 915.243 256.176ZM915.807 256.176C915.807 254.766 916.934 253.639 918.343 253.639C919.753 253.639 920.88 254.766 920.88 256.176C920.88 257.585 919.753 258.712 918.343 258.712C916.934 258.712 915.807 257.585 915.807 256.176ZM852.818 309.723H853.382C853.382 308.314 854.509 307.328 855.918 307.328C857.327 307.328 858.455 308.455 858.455 309.723H859.018C858.877 308.032 857.609 306.764 855.918 306.764C854.227 306.764 852.818 308.032 852.818 309.723ZM876.914 260.967C876.914 262.658 878.324 264.067 880.015 264.067C881.706 264.067 883.115 262.658 883.115 260.967C883.115 259.276 881.706 257.866 880.015 257.866C878.324 257.866 876.914 259.276 876.914 260.967ZM877.478 260.967C877.478 259.557 878.605 258.43 880.015 258.43C881.424 258.43 882.551 259.557 882.551 260.967C882.551 262.376 881.424 263.503 880.015 263.503C878.605 263.644 877.478 262.517 877.478 260.967ZM875.364 203.755C875.364 205.446 876.774 206.855 878.465 206.855C880.155 206.855 881.565 205.446 881.565 203.755C881.565 202.064 880.155 200.655 878.465 200.655C876.774 200.655 875.364 202.064 875.364 203.755ZM875.787 203.755C875.787 202.346 876.914 201.219 878.465 201.219C879.874 201.219 881.001 202.346 881.001 203.755C881.001 205.164 879.874 206.292 878.465 206.292C877.055 206.292 875.787 205.164 875.787 203.755ZM930.744 283.231C930.744 284.922 932.153 286.331 933.844 286.331C934.83 286.331 935.676 285.908 936.24 285.204C936.24 285.063 936.099 284.781 936.099 284.64C935.676 285.345 934.83 285.768 933.985 285.768C932.576 285.768 931.448 284.64 931.448 283.231C931.448 281.822 932.576 280.695 933.985 280.695C934.267 280.695 934.549 280.695 934.83 280.836C934.83 280.695 934.69 280.413 934.69 280.272C934.549 280.272 934.267 280.272 934.126 280.272C932.153 280.131 930.744 281.54 930.744 283.231ZM896.783 278.017C896.783 279.708 898.193 281.117 899.884 281.117C901.575 281.117 902.984 279.708 902.984 278.017C902.984 276.326 901.575 274.917 899.884 274.917C898.193 274.917 896.783 276.326 896.783 278.017ZM897.347 278.017C897.347 276.608 898.474 275.481 899.884 275.481C901.293 275.481 902.42 276.608 902.42 278.017C902.42 279.426 901.293 280.554 899.884 280.554C898.474 280.554 897.347 279.426 897.347 278.017ZM847.041 253.639C847.041 255.33 848.45 256.739 850.141 256.739C851.832 256.739 853.241 255.33 853.241 253.639C853.241 251.948 851.832 250.539 850.141 250.539C848.45 250.539 847.041 251.807 847.041 253.639ZM847.604 253.639C847.604 252.23 848.732 251.103 850.141 251.103C851.55 251.103 852.818 252.23 852.818 253.639C852.818 255.048 851.691 256.176 850.141 256.176C848.732 256.176 847.604 255.048 847.604 253.639ZM857.468 153.026C858.032 154.153 859.018 154.858 860.286 154.858C860.427 154.858 860.709 154.858 860.85 154.858C860.568 154.717 860.427 154.576 860.146 154.294C859.3 154.294 858.736 153.871 858.314 153.308C858.032 153.167 857.75 153.026 857.468 153.026ZM845.49 191.073C845.49 192.764 846.9 194.173 848.591 194.173C850.282 194.173 851.691 192.764 851.691 191.073C851.691 189.382 850.282 187.973 848.591 187.973C846.9 187.973 845.49 189.382 845.49 191.073ZM846.054 191.073C846.054 189.664 847.181 188.536 848.732 188.536C850.141 188.536 851.268 189.664 851.268 191.073C851.268 192.482 850.141 193.75 848.732 193.75C847.181 193.609 846.054 192.482 846.054 191.073Z" fill="white"/>
<path d="M823.226 252.794C829.426 253.498 835.767 254.344 841.826 255.894C844.926 256.74 847.886 257.585 850.845 258.571C852.395 258.994 853.804 259.558 855.354 259.981C856.904 260.403 858.595 260.826 860.145 260.826C860.286 260.826 860.286 261.108 860.145 261.108C858.595 261.108 857.045 261.249 855.495 260.967C853.945 260.826 852.536 260.544 851.127 260.121C848.027 259.417 844.926 258.431 841.967 257.726C835.767 256.176 829.567 254.485 823.226 253.358C822.944 253.217 822.944 252.653 823.226 252.794Z" fill="black"/>
<path d="M807.725 258.29C812.939 257.727 818.153 257.445 823.367 257.586C825.903 257.586 828.58 257.868 831.117 258.008C832.385 258.149 833.653 258.29 834.781 258.431C836.19 258.572 837.458 258.995 838.867 259.136C839.008 259.136 839.008 259.418 838.867 259.418C837.599 259.277 836.331 259.418 834.922 259.418C833.653 259.418 832.385 259.277 830.976 259.277C828.44 259.277 825.762 259.136 823.226 259.136C818.012 258.995 812.798 258.854 807.725 258.854C807.443 258.713 807.443 258.29 807.725 258.29Z" fill="black"/>
<path d="M851.55 162.186C850.846 164.723 837.318 181.21 825.34 180.082C821.394 179.66 822.663 158.241 822.663 158.241L822.381 156.691L818.576 134.285L845.491 118.925L849.437 116.953C849.437 116.953 850 123.153 850.846 130.903C850.846 131.326 850.846 131.608 850.987 132.031C850.987 132.453 851.127 132.876 851.127 133.299C851.268 134.426 851.409 135.694 851.409 136.822C851.55 137.667 851.55 138.654 851.55 139.499C851.55 140.485 851.691 141.331 851.691 142.317C852.255 151.477 851.973 161.2 851.55 162.186Z" fill="white"/>
<path d="M850.846 130.762C843.518 148.095 829.145 154.577 822.522 156.55L818.717 134.144L845.632 118.784L849.578 116.812C849.437 116.812 850 123.012 850.846 130.762Z" fill="black"/>
<path d="M789.688 95.2515C781.797 134.426 804.484 143.585 812.939 145.276C820.549 146.826 846.9 151.054 858.737 112.866C870.574 74.678 854.791 58.7546 837.459 54.2453C820.126 49.8769 797.439 56.0772 789.688 95.2515Z" fill="white"/>
<path d="M797.439 88.6285C798.425 88.7694 799.271 88.7695 800.257 88.7695C801.385 88.7695 802.089 88.9104 803.075 88.3467C803.639 88.0649 803.78 87.2194 803.498 86.6557C802.935 85.3875 801.666 85.1057 800.398 84.9648C798.989 84.8239 797.862 85.1057 796.734 85.9512C795.607 86.7966 796.171 88.4876 797.439 88.6285Z" fill="black"/>
<path d="M825.622 96.9422C824.776 96.5195 824.072 96.0967 823.226 95.5331C822.24 94.9694 821.535 94.6876 820.971 93.7012C820.69 93.1375 820.971 92.292 821.535 92.0102C822.662 91.3056 823.931 91.7283 825.058 92.292C826.326 92.9966 827.031 93.7011 827.594 94.9694C828.299 96.3785 826.749 97.5059 825.622 96.9422Z" fill="black"/>
<path d="M818.153 101.875C818.153 101.734 818.294 102.016 818.294 102.157C817.589 104.834 817.167 107.934 819.421 109.343V109.484C816.462 108.357 817.026 104.27 818.153 101.875Z" fill="black"/>
<path d="M821.112 99.6198C825.481 100.324 823.79 108.92 819.703 108.216C815.758 107.652 817.449 99.0561 821.112 99.6198Z" fill="black"/>
<path d="M822.803 100.466C823.508 101.17 824.071 102.157 824.917 102.439C825.903 102.72 826.89 102.016 827.735 101.311C827.876 101.17 827.876 101.311 827.876 101.452C827.594 103.143 826.608 104.693 824.776 104.552C823.085 104.411 822.24 102.72 822.099 101.029C822.099 100.607 822.521 100.184 822.803 100.466Z" fill="black"/>
<path d="M801.948 98.3515C801.948 98.2106 801.666 98.4924 801.666 98.4924C801.243 101.17 800.257 104.129 797.72 104.552C797.58 104.552 797.58 104.693 797.72 104.693C800.821 104.974 801.948 101.029 801.948 98.3515Z" fill="black"/>
<path d="M800.116 95.1105C795.889 93.9832 793.916 102.579 797.861 103.565C801.666 104.552 803.639 96.0969 800.116 95.1105Z" fill="black"/>
<path d="M798.143 95.2516C797.298 95.5334 796.452 96.238 795.748 96.0971C794.761 95.9561 794.338 94.8288 793.916 93.8424C793.916 93.7015 793.775 93.8424 793.775 93.8424C793.352 95.5334 793.493 97.2244 795.043 97.9289C796.452 98.4926 797.72 97.3653 798.566 95.8152C798.566 95.6743 798.425 95.1106 798.143 95.2516Z" fill="black"/>
<path d="M812.798 125.407C812.235 126.111 811.671 126.957 810.685 127.238C809.698 127.379 808.571 127.097 807.725 126.816C807.584 126.816 807.584 126.957 807.584 126.957C808.43 127.943 809.98 128.507 811.107 128.084C812.376 127.802 812.798 126.675 813.08 125.547C813.221 125.407 812.939 125.266 812.798 125.407Z" fill="black"/>
<path d="M803.216 113.712C803.216 113.712 801.807 117.516 801.384 119.489C801.384 119.63 801.807 119.912 802.371 120.053C802.371 120.053 802.371 120.053 802.512 120.053C805.753 121.321 809.276 120.757 811.812 118.503C811.953 118.362 811.812 118.08 811.53 118.221C808.712 119.489 805.894 119.348 802.934 118.784C802.934 118.221 805.471 112.302 805.189 112.161C804.203 111.88 801.948 112.161 800.68 112.302C803.357 104.129 807.303 96.5199 809.698 88.3469C809.839 88.0651 809.416 87.9241 809.276 88.065C804.625 95.8154 801.384 105.116 798.425 113.43C798.143 114.416 802.371 113.852 803.216 113.712Z" fill="black"/>
<path d="M802.935 119.489C802.935 119.489 804.203 122.448 806.457 123.857C807.303 124.421 808.289 124.843 809.417 124.703C811.671 124.703 812.235 122.73 812.235 120.898C812.235 119.489 811.953 118.08 811.953 118.08C811.953 118.08 808.008 120.475 802.935 119.489Z" fill="black"/>
<path d="M806.458 123.998C807.303 124.562 808.289 124.985 809.417 124.844C811.671 124.844 812.235 122.871 812.235 121.039C809.839 120.757 807.162 121.744 806.458 123.998Z" fill="#FF99BA"/>
<path d="M849.154 54.1042C849.859 57.4861 867.051 63.2636 877.196 52.9769C887.342 42.831 880.297 26.344 864.796 30.2896C855.073 32.826 847.745 47.0584 849.154 54.1042Z" fill="black"/>
<path d="M880.86 37.0531C878.465 33.1075 874.801 30.1483 870.714 28.5983C866.628 27.0482 862.119 27.6119 858.737 30.2892C855.214 32.8257 852.959 36.7713 851.268 40.8578C850.423 42.9716 849.859 45.0853 849.436 47.3399C849.014 49.5946 848.732 51.8492 849.154 54.1038C848.168 51.9901 848.168 49.4536 848.309 47.199C848.45 44.8035 848.873 42.5488 849.577 40.1533C850.986 35.644 853.382 31.1347 857.468 28.1755C859.441 26.6254 861.837 25.639 864.373 25.3572C866.91 25.0754 869.446 25.6391 871.701 26.6255C875.928 28.7392 879.451 32.5439 880.86 37.0531Z" fill="black"/>
<path d="M853.805 116.389C845.631 114.275 849.859 95.5334 849.859 95.5334C849.859 95.5334 836.613 89.6149 833.231 78.9054C833.231 78.9054 835.063 87.924 839.713 92.5742C840.418 93.4197 813.08 83.6965 815.617 61.5729C815.617 61.5729 806.316 81.8646 792.507 82.9919C791.802 82.9919 798.989 64.1094 804.203 60.5865C809.416 57.0636 813.926 55.6545 813.926 55.6545C813.926 55.6545 828.581 48.4678 845.209 55.0908C861.837 61.7138 868.741 82.5692 868.319 90.3195C867.332 105.538 857.609 117.375 853.805 116.389Z" fill="black"/>
<path d="M838.586 92.715C823.508 88.3466 813.644 75.6643 816.18 59.7409C816.18 59.3182 815.617 59.1772 815.476 59.6C809.557 74.9597 823.931 90.7421 838.727 93.1377C839.009 93.1377 839.009 92.8559 838.586 92.715Z" fill="black"/>
<path d="M853.945 115.543C846.618 109.343 847.323 100.606 848.732 92.0104C848.732 91.7285 848.309 91.5876 848.309 91.8694C846.195 100.183 845.209 110.611 853.382 116.107C853.946 116.389 854.368 115.825 853.945 115.543Z" fill="black"/>
<path d="M816.18 58.3318C816.18 58.1908 816.039 58.1908 816.039 58.3318C812.094 66.6457 808.148 81.3008 796.311 80.8781C796.029 80.8781 795.888 81.3009 796.311 81.3009C807.584 82.71 815.194 67.6321 816.18 58.3318Z" fill="black"/>
<path d="M852.396 95.1099L857.046 103.424L868.883 93.2781L866.769 89.6143L852.396 95.1099ZM855.918 96.5191L865.36 92.2916L865.782 93.1371L857.468 99.4783L855.918 96.5191Z" fill="#2C2AAB"/>
<path d="M850.282 82.5688L851.55 92.0102L866.346 87.0781L865.782 82.8507L850.282 82.5688ZM853.1 85.2462L863.528 84.8235L863.669 85.8099L853.664 88.4873L853.1 85.2462Z" fill="#2C2AAB"/>
<path d="M851.832 114.556C851.832 114.556 861.837 103.142 867.191 106.806C872.405 110.47 863.95 127.802 857.045 129.493C850.141 131.184 848.45 124.843 848.45 124.843L851.832 114.556Z" fill="white"/>
<path d="M864.655 111.738C864.796 111.738 864.796 111.879 864.655 111.879C859.864 113.288 856.904 117.234 854.65 121.461C856.2 119.911 858.173 119.207 860.286 121.039C860.427 121.18 860.286 121.32 860.145 121.32C858.314 120.757 856.904 120.898 855.495 122.307C854.509 123.293 853.663 124.562 852.959 125.689C852.677 126.112 851.972 125.83 852.254 125.266C852.254 125.266 852.254 125.266 852.254 125.125C852.677 119.489 858.173 111.738 864.655 111.738Z" fill="black"/>
<path d="M876.633 163.172C904.675 187.269 975.555 281.4 958.363 302.255C940.89 323.111 830.976 309.865 799.13 298.873C789.688 295.632 817.589 235.884 828.017 233.348C836.613 231.234 883.819 246.876 884.806 244.058C885.933 240.957 873.674 223.343 858.596 185.578C841.122 142.035 864.232 152.604 876.633 163.172Z" fill="white"/>
<path d="M781.375 220.243C759.251 219.68 753.474 222.921 735.014 212.493C722.895 205.588 713.313 210.379 721.204 222.639C734.027 242.508 762.351 249.272 772.92 248.849L781.375 220.243Z" fill="white"/>
<path d="M841.686 234.898C841.686 234.898 815.617 224.047 792.084 221.088C775.738 218.975 739.946 218.411 709.931 257.162C702.885 266.322 699.221 284.5 716.272 273.649C728.391 266.04 733.746 257.444 741.637 254.344C741.637 254.344 739.805 278.018 749.246 284.782C753.474 287.741 765.169 295.773 775.315 300.705C775.315 300.705 777.006 298.873 778.697 296.055C778.697 296.055 788.139 301.551 804.344 298.169L841.686 234.898Z" fill="white"/>
<path d="M776.302 221.512C769.115 226.303 754.178 236.731 744.878 249.554C734.591 263.786 718.527 293.801 729.095 301.41C736.846 306.906 743.891 295.915 743.891 295.915C743.891 295.915 739.946 309.724 747.978 313.247C755.306 316.347 760.378 307.611 760.378 307.611C760.378 307.611 759.392 316.488 767.001 318.038C776.161 320.011 776.725 301.269 787.857 295.21C790.393 293.66 776.302 221.512 776.302 221.512Z" fill="white"/>
<path d="M761.647 257.867C755.728 263.504 745.441 279.709 743.75 295.492C743.75 295.914 744.032 296.055 744.032 295.773C749.669 278.723 757.983 263.927 761.647 257.867C761.928 257.867 761.788 257.726 761.647 257.867Z" fill="black"/>
<path d="M775.738 268.718C771.088 274.073 761.224 291.264 760.097 307.329C760.097 307.751 760.379 307.892 760.379 307.61C765.451 289.573 772.356 275.059 775.738 268.718C775.879 268.718 775.738 268.577 775.738 268.718Z" fill="black"/>
<path d="M741.637 254.062C734.732 256.881 730.504 260.967 725.009 265.758C722.331 268.154 719.513 270.549 716.554 272.522C713.876 274.354 709.79 277.313 706.408 275.2C704.576 274.072 704.294 271.536 704.435 269.563C704.576 267.308 705.28 265.054 706.267 263.081C706.267 262.94 706.126 262.94 706.126 262.94C705.14 264.631 704.294 266.604 703.73 268.577C703.308 270.409 703.026 272.381 703.73 274.213C705.28 278.018 709.931 278.018 713.031 276.609C714.863 275.763 716.695 274.495 718.386 273.227C719.936 272.1 721.486 270.831 723.036 269.563C726.136 266.886 729.095 264.067 732.195 261.39C735.577 258.431 737.973 256.881 741.637 254.344C741.918 254.203 741.777 254.062 741.637 254.062Z" fill="black"/>
<path d="M729.518 280.836C730.927 276.609 738.959 258.572 741.777 254.344C741.918 254.203 741.636 254.062 741.636 254.203C736.704 260.122 729.377 275.059 727.686 279.709C726.136 284.359 724.445 290.278 725.008 295.21C725.854 302.678 730.927 303.524 732.759 303.664C735.013 303.805 737.127 303.101 738.959 301.974C741.073 300.564 742.905 298.028 744.032 295.914C744.032 295.773 743.891 295.632 743.891 295.773C741.636 299.014 737.691 302.396 733.604 302.255C731.772 302.255 729.94 301.551 728.672 300.283C727.263 298.732 726.84 296.478 726.84 294.364C726.699 289.714 728.109 285.205 729.518 280.836Z" fill="black"/>
<path d="M760.096 307.329C759.11 308.315 757.419 311.697 754.037 312.683C751.641 313.388 748.964 313.529 746.85 311.838C744.737 310.288 743.75 307.892 743.468 305.356C743.187 303.947 743.75 297.746 744.032 295.774C744.032 295.633 743.891 295.633 743.891 295.774C743.187 299.156 742.482 302.819 742.764 306.06C743.046 308.738 744.173 311.556 746.428 313.106C748.682 314.797 751.782 315.22 754.319 313.811C755.587 313.106 759.533 310.006 760.378 307.188C760.519 307.329 760.237 307.188 760.096 307.329Z" fill="black"/>
<path d="M787.152 293.801C786.025 294.646 785.179 295.774 784.334 296.76C783.347 297.887 782.502 299.015 781.656 300.142C779.965 302.538 778.556 305.074 777.288 307.751C776.02 310.429 775.033 313.388 772.779 315.361C770.524 317.334 767.283 318.038 764.606 316.488C763.197 315.643 762.21 314.515 761.646 312.965C761.083 311.415 760.519 309.583 760.66 307.892C760.66 307.751 760.519 307.751 760.519 307.892C760.519 309.442 760.378 310.993 760.66 312.543C760.942 313.952 761.646 315.22 762.492 316.347C764.465 318.461 767.706 319.166 770.383 318.32C773.483 317.475 775.456 314.797 776.865 312.12C778.415 309.161 779.683 305.92 781.374 302.96C782.22 301.41 783.206 299.86 784.193 298.31C785.179 296.76 786.588 295.351 787.434 293.801C787.434 293.801 787.293 293.66 787.152 293.801Z" fill="black"/>
<path d="M796.453 299.156C794.057 299.156 788.561 298.874 784.193 298.028C784.052 298.028 783.911 298.31 784.052 298.451C785.743 299.156 789.125 299.719 790.111 299.719C792.084 299.86 794.339 299.86 796.312 299.437C796.593 299.297 796.593 299.156 796.453 299.156Z" fill="black"/>
<path d="M927.644 259.276C920.88 255.754 913.835 252.794 906.648 250.258C899.602 247.721 892.134 245.89 884.806 244.48C880.579 243.635 876.351 243.071 872.124 242.367C871.983 242.367 871.983 242.508 872.124 242.508C879.592 243.917 886.92 245.89 894.106 248.144C901.293 250.399 908.48 252.653 915.525 255.19C919.612 256.599 923.558 258.149 927.503 259.699C927.644 259.558 927.785 259.276 927.644 259.276Z" fill="black"/>
<path d="M935.113 220.807L873.956 225.598C873.956 225.598 859.301 196.851 851.973 170.5C844.645 144.29 867.474 149.927 893.543 175.996C919.612 202.206 935.113 220.807 935.113 220.807Z" fill="#2C2AAB"/>
<path d="M876.492 225.175C876.21 225.175 873.956 225.034 873.956 225.034C873.674 224.189 868.883 212.07 867.615 209.393C865.078 204.038 862.401 198.824 859.583 193.61C859.442 193.469 859.301 193.61 859.301 193.751C861.133 198.26 862.965 202.911 864.937 207.42C864.374 206.856 863.951 206.152 863.528 205.588C862.542 204.32 861.696 202.911 860.71 201.642C860.569 201.501 860.428 201.642 860.428 201.783C861.274 203.756 862.401 205.447 863.669 207.138C864.233 207.843 864.796 208.547 865.501 209.111C865.642 209.533 865.783 209.815 865.924 210.238C867.051 212.915 873.11 226.021 873.251 226.021C873.251 226.021 875.506 225.88 876.211 225.739C876.633 225.598 876.633 225.175 876.492 225.175Z" fill="black"/>
<path d="M923.981 210.238C910.735 210.661 897.489 212.07 884.383 213.761C880.72 214.184 876.915 214.747 873.251 215.452C873.11 215.452 873.11 215.593 873.251 215.593C879.874 215.17 886.497 214.607 892.979 213.902C899.602 213.338 906.225 212.634 912.848 211.788C916.512 211.366 920.317 210.943 923.981 210.379C924.121 210.379 924.121 210.097 923.981 210.238Z" fill="black"/>
<path d="M339.184 314.655H182.486V321.701H339.184V314.655Z" fill="black"/>
<path d="M261.399 314.655H182.486V321.701H261.399V314.655Z" fill="black"/>
<path d="M259.426 321.701H412.177L433.737 217.987H280.986L259.426 321.701Z" fill="black"/>
<path d="M334.815 272.239C334.251 277.876 338.338 282.385 343.975 282.385C349.611 282.385 354.684 277.876 355.248 272.239C355.811 266.603 351.725 262.093 346.088 262.093C340.452 261.953 335.379 266.603 334.815 272.239Z" fill="white"/>
<path d="M830.271 313.387H673.574V320.432H830.271V313.387Z" fill="black"/>
<path d="M830.412 313.387H751.5V320.432H830.412V313.387Z" fill="black"/>
<path d="M753.332 320.432H600.58L579.021 216.719H731.631L753.332 320.432Z" fill="black"/>
<path d="M677.943 270.972C678.506 276.608 674.42 281.118 668.783 281.118C663.147 281.118 658.074 276.608 657.51 270.972C656.946 265.335 661.033 260.826 666.669 260.826C672.306 260.685 677.379 265.335 677.943 270.972Z" fill="white"/>
<path d="M586.348 197.977C569.438 220.806 551.824 247.439 547.597 276.185C547.597 276.608 548.301 276.749 548.301 276.326C550.274 268.435 552.811 260.825 555.77 253.357C566.902 250.257 577.752 247.72 583.671 236.729C589.589 225.456 588.885 210.66 587.757 198.259C587.616 197.555 586.63 197.555 586.348 197.977Z" fill="#8AA1A0"/>
<path d="M555.911 253.075C563.52 236.024 573.243 218.974 585.644 204.882C585.785 204.741 585.926 204.882 585.785 205.023C577.612 215.028 571.552 225.878 565.493 236.87C571.13 231.233 577.189 226.16 582.544 220.101C582.685 219.96 582.826 220.101 582.685 220.242C577.471 226.583 571.693 233.488 564.788 238.138C562.957 241.52 561.125 244.902 559.152 248.284C559.575 248.002 560.138 247.861 560.561 247.579C560.702 247.579 560.702 247.72 560.702 247.72C560.138 248.002 559.715 248.284 559.152 248.425C558.306 249.975 557.32 251.666 556.474 253.216C556.193 253.78 555.77 253.498 555.911 253.075Z" fill="black"/>
<path d="M561.547 247.157C566.057 244.62 570.425 241.802 574.511 238.561C574.652 238.42 574.793 238.561 574.652 238.702C570.707 242.084 566.338 245.184 561.688 247.579C561.547 247.579 561.266 247.297 561.547 247.157Z" fill="black"/>
<path d="M545.483 271.817C545.483 272.099 546.047 272.099 546.047 271.817C546.188 262.376 546.047 252.934 546.188 243.352C548.583 238.42 553.797 235.743 557.461 231.797C559.997 228.979 562.252 225.738 564.225 222.356C568.734 214.324 571.13 205.305 572.116 196.287C573.102 186.141 569.298 152.744 565.07 154.012C562.816 154.576 555.77 171.204 553.797 176.559C550.697 185.577 548.442 194.877 547.033 204.319C543.51 226.583 543.792 249.552 545.483 271.817Z" fill="#8AA1A0"/>
<path d="M545.483 231.093C546.047 219.115 548.724 206.997 551.261 195.442C553.938 182.9 557.179 171.204 563.52 160.072C563.661 159.931 563.943 160.072 563.802 160.213C559.434 168.809 556.334 177.968 553.938 187.409C554.361 186.705 554.924 186.141 555.347 185.437C555.488 185.155 555.911 185.437 555.77 185.719C555.206 186.705 554.502 187.691 553.797 188.537C553.797 188.537 553.797 188.537 553.656 188.537C551.402 197.414 549.852 206.574 548.442 215.733C548.583 215.592 548.583 215.452 548.724 215.452C548.724 215.311 548.865 215.452 548.865 215.592C548.724 215.874 548.442 216.156 548.302 216.438C547.597 221.088 547.033 225.738 546.329 230.248C554.502 223.202 561.547 214.888 565.634 204.742H565.775C561.829 215.311 555.77 224.752 546.329 231.234C546.188 232.502 546.047 233.77 545.765 234.898C545.765 235.18 545.342 235.039 545.342 234.898C545.342 233.77 545.342 232.784 545.483 231.657C545.342 231.375 545.342 231.234 545.483 231.093Z" fill="black"/>
<path d="M549.288 213.761C555.629 204.32 561.407 195.301 566.057 184.873C566.057 184.732 566.339 184.873 566.198 185.014C562.252 195.301 556.898 205.729 549.57 214.043C549.57 214.184 549.288 213.902 549.288 213.761Z" fill="black"/>
<path d="M557.743 182.478C560.42 177.828 563.098 173.318 565.493 168.668C565.493 168.527 565.775 168.668 565.634 168.809C563.521 173.6 561.125 178.532 558.025 182.76C557.884 183.042 557.602 182.76 557.743 182.478Z" fill="black"/>
<path d="M539.142 244.48C539.001 250.68 538.296 257.021 536.887 263.081C537.028 263.785 537.028 264.49 537.169 265.053C539.142 258.29 540.128 251.244 540.551 244.339C540.692 244.198 540.692 243.916 540.551 243.634C540.974 234.193 539.987 224.752 538.437 215.451C535.478 198.119 529.137 181.35 517.018 168.386C516.595 167.963 515.891 168.245 515.75 168.668C510.818 181.068 512.509 195.864 516.736 208.406C518.991 215.029 522.232 221.511 526.318 227.288C530.405 233.207 535.76 238.139 539.142 244.48Z" fill="#8AA1A0"/>
<path d="M518.427 174.445C529.841 193.045 537.873 215.169 538.86 237.152C538.86 237.574 538.155 237.574 538.155 237.293C537.873 235.32 537.592 233.347 537.31 231.374C532.519 226.865 527.728 222.074 524.346 216.296C524.346 216.155 524.486 216.014 524.486 216.155C528.573 220.946 532.519 225.738 537.169 229.965C536.323 225.033 535.337 220.242 534.21 215.592C533.928 215.31 533.646 214.887 533.364 214.464C533.223 214.183 533.505 213.901 533.646 214.183C533.787 214.324 533.787 214.324 533.928 214.464C532.237 207.982 530.264 201.641 527.868 195.441C524.909 191.918 521.668 188.959 519.554 184.731C519.554 184.59 519.695 184.59 519.695 184.59C521.386 186.986 523.077 189.382 525.05 191.636C525.755 192.482 526.741 193.327 527.446 194.173C524.768 187.55 521.668 180.927 518.004 174.586C517.864 174.304 518.286 174.163 518.427 174.445Z" fill="black"/>
<path d="M520.823 197.414C524.486 202.346 528.714 207.137 532.237 212.351C532.378 212.492 532.096 212.633 531.955 212.492C527.587 208.265 523.782 202.628 520.541 197.555C520.4 197.414 520.682 197.273 520.823 197.414Z" fill="black"/>
<path d="M532.659 213.478L532.8 213.619C532.941 213.76 532.8 213.901 532.659 213.76L532.518 213.619C532.378 213.478 532.659 213.337 532.659 213.478Z" fill="black"/>
<path d="M500.531 210.238C501.518 219.82 506.45 231.234 512.65 238.702C515.327 241.943 518.709 244.48 522.514 246.312C526.741 248.426 531.251 250.821 535.619 252.512C537.733 257.726 539.283 263.222 540.269 268.999C540.41 268.576 540.551 268.013 540.692 267.59C537.874 243.353 522.091 222.497 502.081 209.251C501.236 208.828 500.39 209.392 500.531 210.238Z" fill="#8AA1A0"/>
<path d="M507.436 217.424C507.295 217.283 507.436 217.001 507.577 217.142C518.286 225.034 527.868 236.589 533.223 248.707C533.364 248.989 532.941 249.271 532.66 248.989C531.673 247.298 530.828 245.748 529.841 244.198C525.191 243.353 520.964 240.112 517.441 237.011C517.3 236.87 517.441 236.73 517.582 236.87C519.414 238.421 521.245 239.83 523.359 240.957C525.191 241.943 527.305 242.507 529.137 243.212C527.446 240.534 525.614 237.857 523.782 235.461C518.85 233.77 514.2 230.811 509.972 227.711C509.831 227.57 509.972 227.429 510.113 227.429C514.341 229.966 518.568 232.22 522.936 234.334C520.118 230.67 517.159 227.147 513.918 223.765C512.368 222.92 510.818 222.074 509.268 221.229C509.127 221.088 509.268 220.947 509.409 220.947C510.677 221.37 511.804 221.934 512.931 222.638C511.241 220.947 509.409 219.115 507.436 217.424Z" fill="black"/>
<path d="M507.859 225.738C508.14 225.879 508.422 226.02 508.563 226.302C508.704 226.302 508.563 226.443 508.422 226.443C508.14 226.302 507.858 226.161 507.577 226.02C507.577 225.879 507.718 225.738 507.859 225.738Z" fill="black"/>
<path d="M571.975 321.701H516.877L521.387 271.535L522.373 260.403H566.62L567.466 271.535L571.975 321.701Z" fill="black"/>
<path d="M567.466 271.535H521.387L522.373 260.403H566.62L567.466 271.535Z" fill="black"/>
<path d="M569.157 252.652H519.696V263.644H569.157V252.652Z" fill="black"/>
<path d="M0.499829 310.997C18.4978 311.266 457.665 281.58 1027.5 334.499" stroke="#253359" stroke-width="17"/>
</svg>
