<svg width="108" height="40" viewBox="0 0 108 40" fill="none" xmlns="http://www.w3.org/2000/svg">
<path d="M31.7113 24.0745L34.8312 19.5576C34.9243 19.837 35.0175 20.1164 35.1106 20.3958C35.7625 22.1653 36.787 23.702 38.0908 25.0058C40.4191 27.3341 43.6787 28.7776 47.2177 28.7776H48.1956V25.0524H47.2177C42.8405 25.0524 39.1618 21.979 38.2305 17.8347C38.0908 17.1828 37.9977 16.5309 37.9977 15.8324C37.9977 15.4598 37.9977 15.1339 38.0442 14.7614C38.0442 14.5285 38.0908 14.2957 38.1374 14.0629C38.6496 11.2689 40.4657 8.94063 42.8871 7.68335C44.1909 6.98487 45.6345 6.61234 47.1711 6.61234H63.2363V6.70547H66.9616V2.88708H47.1711V2.93364C46.4261 2.93364 45.681 2.98021 44.936 3.11991C43.1665 3.44587 41.4901 4.09779 40.0466 5.07567C37.4854 6.75204 35.5763 9.35972 34.6915 12.3865C34.5984 12.6659 34.5518 12.8987 34.5052 13.1781L33.8533 14.1094L28.3586 22.1653L27.986 21.7928L24.3073 18.2072L5.49476 0H0L24.3073 23.5157L26.2165 25.3318L24.3073 28.1257L16.1583 39.9534H20.8149L24.3073 34.9243L27.986 29.5227L31.7113 24.0745Z" fill="#253359"/>
<path d="M98.44 25.518L95.9255 21.7462L81.4435 0H79.0687H76.6938L60.2561 24.5867C59.7904 21.979 58.4866 19.6973 56.7171 17.8813C54.3888 15.553 51.1758 14.1094 47.5902 14.1094H47.1245V17.8347H47.5902C51.9674 17.8347 55.6926 20.9546 56.5774 25.0524C56.7171 25.7043 56.8102 26.3562 56.8102 27.0547C56.8102 27.6135 56.7171 28.2189 56.624 28.7776C55.7858 33.0151 52.0605 36.2282 47.5902 36.2282H27.986L25.6577 39.9534H47.5902C48.5215 39.9534 49.4528 39.8603 50.3376 39.674C53.1315 39.0687 55.5995 37.5786 57.369 35.4831C58.0209 34.6915 58.6263 33.8533 59.0919 32.9686L79.0687 3.3993L91.362 21.6531L71.0593 21.1874L68.4051 25.0058L93.9231 25.4715L103.702 40L107.846 39.7206L98.44 25.518Z" fill="#253359"/>
</svg>
