<svg width="56" height="56" viewBox="0 0 56 56" fill="none" xmlns="http://www.w3.org/2000/svg">
<g clip-path="url(#clip0_1_49)">
<g clip-path="url(#clip1_1_49)">
<g clip-path="url(#clip2_1_49)">
<mask id="mask0_1_49" style="mask-type:luminance" maskUnits="userSpaceOnUse" x="0" y="0" width="56" height="56">
<path d="M42 0H14C6.26801 0 0 6.26801 0 14V42C0 49.732 6.26801 56 14 56H42C49.732 56 56 49.732 56 42V14C56 6.26801 49.732 0 42 0Z" fill="white"/>
</mask>
<g mask="url(#mask0_1_49)">
<path d="M42 0H14C6.26801 0 0 6.26801 0 14V42C0 49.732 6.26801 56 14 56H42C49.732 56 56 49.732 56 42V14C56 6.26801 49.732 0 42 0Z" fill="#CBD8D3"/>
<path d="M8.16492 62.629C31.1052 62.4676 49.5711 43.74 49.4097 20.7997C49.2483 -2.14062 30.5206 -20.6065 7.58035 -20.4451C-15.3599 -20.2837 -33.8259 -1.55605 -33.6644 21.3842C-33.503 44.3245 -14.7754 62.7905 8.16492 62.629Z" fill="url(#paint0_linear_1_49)" stroke="url(#paint1_linear_1_49)" stroke-width="0.085853"/>
<path d="M28.3832 92.3121C51.3235 92.1507 69.7894 73.4231 69.628 50.4828C69.4665 27.5425 50.7389 9.07656 27.7986 9.23799C4.85832 9.39941 -13.6076 28.1271 -13.4462 51.0673C-13.2848 74.0076 5.44289 92.4736 28.3832 92.3121Z" fill="url(#paint2_linear_1_49)" stroke="url(#paint3_radial_1_49)" stroke-width="0.085853"/>
<g filter="url(#filter0_d_1_49)">
<path d="M28.2222 16C28.4366 23.7642 34.6803 30.0078 42.4444 30.2222C34.6803 30.4366 28.4366 36.6803 28.2222 44.4444C28.0078 36.6803 21.7642 30.4366 14 30.2222C21.7642 30.0078 28.0078 23.7642 28.2222 16Z" fill="url(#paint4_radial_1_49)"/>
</g>
</g>
</g>
</g>
</g>
<defs>
<filter id="filter0_d_1_49" x="8.66666" y="14.2222" width="39.1111" height="39.1111" filterUnits="userSpaceOnUse" color-interpolation-filters="sRGB">
<feFlood flood-opacity="0" result="BackgroundImageFix"/>
<feColorMatrix in="SourceAlpha" type="matrix" values="0 0 0 0 0 0 0 0 0 0 0 0 0 0 0 0 0 0 127 0" result="hardAlpha"/>
<feOffset dy="3.55556"/>
<feGaussianBlur stdDeviation="2.66667"/>
<feComposite in2="hardAlpha" operator="out"/>
<feColorMatrix type="matrix" values="0 0 0 0 0.0038961 0 0 0 0 0.576623 0 0 0 0 0.896104 0 0 0 1 0"/>
<feBlend mode="normal" in2="BackgroundImageFix" result="effect1_dropShadow_1_49"/>
<feBlend mode="normal" in="SourceGraphic" in2="effect1_dropShadow_1_49" result="shape"/>
</filter>
<linearGradient id="paint0_linear_1_49" x1="7.58005" y1="-20.4881" x2="8.16522" y2="62.672" gradientUnits="userSpaceOnUse">
<stop stop-color="#5A71C6" stop-opacity="0.56"/>
<stop offset="1" stop-color="white" stop-opacity="0.2"/>
</linearGradient>
<linearGradient id="paint1_linear_1_49" x1="51.3944" y1="16.6515" x2="-44.7865" y2="38.6722" gradientUnits="userSpaceOnUse">
<stop stop-color="#B5C2FB"/>
<stop offset="1" stop-color="#B5C2FB" stop-opacity="0"/>
</linearGradient>
<linearGradient id="paint2_linear_1_49" x1="27.7983" y1="9.19502" x2="28.3835" y2="92.3551" gradientUnits="userSpaceOnUse">
<stop stop-color="#A7BAFF" stop-opacity="0.5"/>
<stop offset="1" stop-color="#4C5C99" stop-opacity="0.08"/>
</linearGradient>
<radialGradient id="paint3_radial_1_49" cx="0" cy="0" r="1" gradientUnits="userSpaceOnUse" gradientTransform="translate(28.0909 50.7751) rotate(89.5648) scale(86.1425 86.1425)">
<stop offset="0.046875" stop-color="#B5C2FB" stop-opacity="0"/>
<stop offset="1" stop-color="#B5C2FB"/>
</radialGradient>
<radialGradient id="paint4_radial_1_49" cx="0" cy="0" r="1" gradientUnits="userSpaceOnUse" gradientTransform="translate(28.2222 30.2222) rotate(90) scale(47.6991)">
<stop stop-color="white"/>
<stop offset="1" stop-color="#5A6795"/>
</radialGradient>
<clipPath id="clip0_1_49">
<rect width="56" height="56" fill="white"/>
</clipPath>
<clipPath id="clip1_1_49">
<rect width="56" height="56" fill="white"/>
</clipPath>
<clipPath id="clip2_1_49">
<rect width="56" height="56" fill="white"/>
</clipPath>
</defs>
</svg>
