<svg width="56" height="56" viewBox="0 0 56 56" fill="none" xmlns="http://www.w3.org/2000/svg">
<path fill-rule="evenodd" clip-rule="evenodd" d="M4.0052 0C1.81209 0 0.0056007 1.80649 0.0056007 3.99962L0.000267968 38.6683C0.000267968 40.4481 2.66933 40.4481 2.66933 38.6683L2.672 3.99962C2.672 3.23836 3.24394 2.66641 4.0052 2.66641H41.3348C42.0961 2.66641 42.668 3.23836 42.668 3.99962V27.9973C42.6413 29.7998 45.3611 29.7998 45.3344 27.9973V3.99962C45.3344 1.80649 43.5279 0 41.3348 0H4.0052ZM12.0044 10.6657C11.6508 10.6657 11.3117 10.8061 11.0617 11.0561C10.8117 11.3062 10.6712 11.6453 10.6712 11.9989C10.6712 12.3524 10.8117 12.6916 11.0617 12.9416C11.3117 13.1916 11.6508 13.3321 12.0044 13.3321C12.358 13.3321 12.6971 13.1916 12.9471 12.9416C13.1971 12.6916 13.3376 12.3524 13.3376 11.9989C13.3376 11.6453 13.1971 11.3062 12.9471 11.0561C12.6971 10.8061 12.358 10.6657 12.0044 10.6657ZM17.2039 10.6683C15.4667 10.7883 15.5907 13.3801 17.3319 13.3347H33.3356C35.0754 13.2974 35.0754 10.7056 33.3356 10.6683H17.3319C17.2892 10.6663 17.2465 10.6663 17.2039 10.6683ZM12.0044 18.6649C11.6508 18.6649 11.3117 18.8053 11.0617 19.0554C10.8117 19.3054 10.6712 19.6445 10.6712 19.9981C10.6712 20.3517 10.8117 20.6908 11.0617 20.9408C11.3117 21.1908 11.6508 21.3313 12.0044 21.3313C12.358 21.3313 12.6971 21.1908 12.9471 20.9408C13.1971 20.6908 13.3376 20.3517 13.3376 19.9981C13.3376 19.6445 13.1971 19.3054 12.9471 19.0554C12.6971 18.8053 12.358 18.6649 12.0044 18.6649ZM33.4823 18.6649C33.4329 18.6649 33.3836 18.6649 33.3356 18.6702H17.3319C17.2892 18.6682 17.2465 18.6682 17.2039 18.6702C15.5694 18.8729 15.684 21.2806 17.3319 21.326H33.3356C35.1661 21.4873 35.3194 18.7036 33.4823 18.6649ZM17.3319 26.6615C15.592 26.6988 15.592 29.2905 17.3319 29.3279H33.3356C35.1514 29.3679 35.1514 26.6215 33.3356 26.6615H17.3319ZM12.0044 26.6641C11.6508 26.6641 11.3117 26.8046 11.0617 27.0546C10.8117 27.3046 10.6712 27.6437 10.6712 27.9973C10.6712 28.3509 10.8117 28.69 11.0617 28.9401C11.3117 29.1901 11.6508 29.3305 12.0044 29.3305C12.358 29.3305 12.6971 29.1901 12.9471 28.9401C13.1971 28.69 13.3376 28.3509 13.3376 27.9973C13.3376 27.6437 13.1971 27.3046 12.9471 27.0546C12.6971 26.8046 12.358 26.6641 12.0044 26.6641ZM12.0044 34.6634C11.6508 34.6634 11.3117 34.8038 11.0617 35.0538C10.8117 35.3039 10.6712 35.643 10.6712 35.9966C10.6712 36.3502 10.8117 36.6893 11.0617 36.9393C11.3117 37.1893 11.6508 37.3298 12.0044 37.3298C12.358 37.3298 12.6971 37.1893 12.9471 36.9393C13.1971 36.6893 13.3376 36.3502 13.3376 35.9966C13.3376 35.643 13.1971 35.3039 12.9471 35.0538C12.6971 34.8038 12.358 34.6634 12.0044 34.6634ZM17.3319 34.6634C15.516 34.6234 15.516 37.3698 17.3319 37.3298H30.6665C32.4824 37.3698 32.4824 34.6234 30.6665 34.6634H17.3319ZM12.0044 42.6626C11.6508 42.6626 11.3117 42.8031 11.0617 43.0531C10.8117 43.3031 10.6712 43.6422 10.6712 43.9958C10.6712 44.3494 10.8117 44.6885 11.0617 44.9385C11.3117 45.1886 11.6508 45.329 12.0044 45.329C12.358 45.329 12.6971 45.1886 12.9471 44.9385C13.1971 44.6885 13.3376 44.3494 13.3376 43.9958C13.3376 43.6422 13.1971 43.3031 12.9471 43.0531C12.6971 42.8031 12.358 42.6626 12.0044 42.6626ZM17.2039 42.6626C15.4254 42.7479 15.552 45.417 17.3319 45.3317H28.0001C29.78 45.3317 29.78 42.6626 28.0001 42.6626H17.3319C17.2892 42.6606 17.2465 42.6606 17.2039 42.6626ZM1.32014 43.9718C1.14392 43.9735 0.969787 44.0102 0.80782 44.0796C0.645852 44.1491 0.49926 44.2499 0.376521 44.3764C0.253783 44.5029 0.157333 44.6524 0.0927508 44.8164C0.0281685 44.9803 -0.00326506 45.1555 0.000267968 45.3317L0.0056007 51.995C0.0056007 54.1882 1.81209 55.9947 4.0052 55.9947H30.6692C32.4717 56.0213 32.4717 53.3016 30.6692 53.3283H4.0052C3.24394 53.3283 2.672 52.7563 2.672 51.995L2.66933 45.3317C2.67292 45.153 2.64055 44.9755 2.57416 44.8095C2.50776 44.6436 2.40868 44.4928 2.28282 44.3659C2.15696 44.2391 2.00688 44.1388 1.8415 44.0711C1.67612 44.0034 1.49882 43.9696 1.32014 43.9718ZM44.0039 31.9943C37.3925 31.9943 32.0077 37.3818 32.0077 43.9931C32.0077 50.6045 37.3939 56 44.0039 56C50.6152 56 56 50.6045 56 43.9931C56 37.3818 50.6139 31.9943 44.0039 31.9943ZM44.0039 34.6634C45.2299 34.6606 46.4443 34.9 47.5775 35.3678C48.7107 35.8357 49.7403 36.5228 50.6073 37.3897C51.4742 38.2566 52.1613 39.2863 52.6291 40.4195C53.097 41.5527 53.3364 42.7671 53.3336 43.9931C53.3366 45.2196 53.0974 46.4345 52.6297 47.5682C52.1619 48.702 51.475 49.7322 50.6081 50.5998C49.7413 51.4674 48.7117 52.1552 47.5783 52.6239C46.445 53.0926 45.2303 53.3329 44.0039 53.3309C42.7774 53.3329 41.5627 53.0926 40.4294 52.6239C39.2961 52.1552 38.2664 51.4674 37.3996 50.5998C36.5328 49.7322 35.8458 48.702 35.3781 47.5682C34.9104 46.4345 34.6711 45.2196 34.6741 43.9931C34.6713 42.7671 34.9107 41.5527 35.3786 40.4195C35.8465 39.2863 36.5336 38.2566 37.4005 37.3897C38.2674 36.5228 39.297 35.8357 40.4302 35.3678C41.5634 34.9 42.7779 34.6606 44.0039 34.6634ZM48.2141 39.8295C47.8689 39.8408 47.5415 39.9856 47.3009 40.2335L42.5867 44.9464L40.7069 43.0586C40.5833 42.9329 40.436 42.8329 40.2736 42.7644C40.1111 42.6959 39.9367 42.6602 39.7604 42.6594C39.5842 42.6586 39.4095 42.6927 39.2464 42.7597C39.0834 42.8267 38.9352 42.9254 38.8105 43.05C38.6857 43.1745 38.5869 43.3226 38.5196 43.4855C38.4523 43.6485 38.418 43.8231 38.4185 43.9994C38.4191 44.1757 38.4545 44.3501 38.5228 44.5127C38.5911 44.6752 38.6909 44.8226 38.8164 44.9464L41.6428 47.7715C41.7666 47.8954 41.9136 47.9937 42.0755 48.0608C42.2373 48.1279 42.4108 48.1625 42.586 48.1625C42.7612 48.1625 42.9347 48.1279 43.0965 48.0608C43.2584 47.9937 43.4054 47.8954 43.5292 47.7715L49.1913 42.1213C49.3858 41.9338 49.5187 41.6916 49.5724 41.4269C49.6261 41.1621 49.5981 40.8873 49.4922 40.6388C49.3862 40.3903 49.2073 40.1799 48.979 40.0354C48.7508 39.8908 48.484 39.8191 48.2141 39.8295Z" fill="#253359"/>
</svg>
