<svg width="42" height="56" viewBox="0 0 42 56" fill="none" xmlns="http://www.w3.org/2000/svg">
<path d="M20.812 33.9138C11.5924 33.9138 4.09082 26.3662 4.09082 17.0892C4.09082 7.81354 11.5917 0.266464 20.812 0.266464C30.036 0.266464 37.5407 7.81354 37.5407 17.0892C37.5407 26.3668 30.0367 33.9138 20.812 33.9138ZM20.812 3.35939C13.2964 3.35939 7.18374 9.51816 7.18374 17.0898C7.18374 24.6615 13.297 30.8215 20.812 30.8215C28.3314 30.8215 34.4477 24.6609 34.4477 17.0898C34.4477 9.51877 28.3314 3.35939 20.812 3.35939Z" fill="#253359"/>
<path d="M39.6373 50.5852C38.7832 50.5852 38.0909 49.8929 38.0909 49.0388V37.0031C38.0909 33.1403 35.9647 30.4105 31.5918 28.6591C30.7986 28.3415 30.4139 27.4418 30.7315 26.6486C31.0484 25.8566 31.9481 25.4695 32.7413 25.7883C39.7186 28.5828 41.1838 33.4289 41.1838 37.0031V49.0394C41.1838 49.8929 40.4915 50.5852 39.6373 50.5852Z" fill="#253359"/>
<path d="M2.23494 50.5834C1.38078 50.5834 0.688477 49.8911 0.688477 49.0369V37.0031C0.688477 31.8849 3.51924 28.0092 8.87248 25.7957C9.66201 25.4695 10.566 25.8449 10.8922 26.6332C11.2183 27.4222 10.8436 28.3268 10.054 28.6529C5.83309 30.3982 3.7814 33.1298 3.7814 37.0031V49.0375C3.7814 49.8911 3.08909 50.5834 2.23494 50.5834Z" fill="#253359"/>
<path d="M20.9382 55.9477C20.5961 55.9477 20.2545 55.8345 19.9721 55.6086L14.6379 51.3422C14.185 50.9791 13.9727 50.3932 14.089 49.824L17.4718 33.3422C17.6195 32.6228 18.2527 32.1065 18.9862 32.1065H22.8342C23.5665 32.1065 24.1992 32.6203 24.3481 33.3378L27.7801 49.8197C27.8982 50.3895 27.6872 50.9778 27.2324 51.3415L21.9044 55.608C21.6225 55.8345 21.2798 55.9477 20.9382 55.9477ZM17.3087 49.5188L20.937 52.4215L24.5598 49.5218L21.577 35.2H20.2478L17.3087 49.5188Z" fill="#253359"/>
</svg>
