<svg width="57" height="56" viewBox="0 0 57 56" fill="none" xmlns="http://www.w3.org/2000/svg">
<g clip-path="url(#clip0_1_119)">
<mask id="mask0_1_119" style="mask-type:luminance" maskUnits="userSpaceOnUse" x="0" y="0" width="57" height="56">
<path d="M42.66 0H14.66C6.92799 0 0.659973 6.26801 0.659973 14V42C0.659973 49.732 6.92799 56 14.66 56H42.66C50.392 56 56.66 49.732 56.66 42V14C56.66 6.26801 50.392 0 42.66 0Z" fill="white"/>
</mask>
<g mask="url(#mask0_1_119)">
<path d="M42.66 0H14.66C6.92799 0 0.659973 6.26801 0.659973 14V42C0.659973 49.732 6.92799 56 14.66 56H42.66C50.392 56 56.66 49.732 56.66 42V14C56.66 6.26801 50.392 0 42.66 0Z" fill="#E7EBFF"/>
<path d="M8.82489 62.629C31.7652 62.4676 50.2311 43.74 50.0697 20.7997C49.9083 -2.14062 31.1806 -20.6065 8.24032 -20.4451C-14.7 -20.2837 -33.1659 -1.55605 -33.0045 21.3842C-32.843 44.3245 -14.1154 62.7905 8.82489 62.629Z" fill="url(#paint0_linear_1_119)" stroke="url(#paint1_linear_1_119)" stroke-width="0.085853"/>
<path d="M29.0432 92.3121C51.9835 92.1507 70.4494 73.4231 70.288 50.4828C70.1265 27.5425 51.3989 9.07656 28.4586 9.23799C5.51832 9.39941 -12.9476 28.1271 -12.7862 51.0673C-12.6248 74.0076 6.10289 92.4736 29.0432 92.3121Z" fill="url(#paint2_linear_1_119)" stroke="url(#paint3_radial_1_119)" stroke-width="0.085853"/>
<path d="M40.66 28C40.66 34.6274 35.2874 40 28.66 40C22.0326 40 16.66 34.6274 16.66 28C16.66 21.3726 22.0326 16 28.66 16M35.3267 28C35.3267 31.6819 32.3419 34.6667 28.66 34.6667C24.9781 34.6667 21.9933 31.6819 21.9933 28C21.9933 24.3181 24.9781 21.3333 28.66 21.3333M32.3372 24.4688L37.6158 25.0232L40.4772 21.0172L37.0435 19.8727L35.899 16.439L31.893 19.3004L32.3372 24.4688ZM32.3372 24.4688L28.66 27.9999" stroke="white" stroke-width="2" stroke-linecap="round" stroke-linejoin="round"/>
</g>
</g>
<defs>
<linearGradient id="paint0_linear_1_119" x1="8.24002" y1="-20.4881" x2="8.82519" y2="62.672" gradientUnits="userSpaceOnUse">
<stop stop-color="#5A71C6" stop-opacity="0.56"/>
<stop offset="1" stop-color="white" stop-opacity="0.2"/>
</linearGradient>
<linearGradient id="paint1_linear_1_119" x1="52.0544" y1="16.6515" x2="-44.1265" y2="38.6722" gradientUnits="userSpaceOnUse">
<stop stop-color="#B5C2FB"/>
<stop offset="1" stop-color="#B5C2FB" stop-opacity="0"/>
</linearGradient>
<linearGradient id="paint2_linear_1_119" x1="28.4583" y1="9.19502" x2="29.0435" y2="92.3551" gradientUnits="userSpaceOnUse">
<stop stop-color="#A7BAFF" stop-opacity="0.5"/>
<stop offset="1" stop-color="#4C5C99" stop-opacity="0.08"/>
</linearGradient>
<radialGradient id="paint3_radial_1_119" cx="0" cy="0" r="1" gradientUnits="userSpaceOnUse" gradientTransform="translate(28.7509 50.7751) rotate(89.5648) scale(86.1425 86.1425)">
<stop offset="0.046875" stop-color="#B5C2FB" stop-opacity="0"/>
<stop offset="1" stop-color="#B5C2FB"/>
</radialGradient>
<clipPath id="clip0_1_119">
<rect width="56" height="56" fill="white" transform="translate(0.659973)"/>
</clipPath>
</defs>
</svg>
