<svg width="40" height="40" viewBox="0 0 40 40" fill="none" xmlns="http://www.w3.org/2000/svg">
<g filter="url(#filter0_d_2001_13)">
<path fill-rule="evenodd" clip-rule="evenodd" d="M16.5374 8.3075C17.2544 12.1184 20.4454 16.4446 20.4454 16.4446C20.4454 16.4446 23.9849 11.6459 24.446 7.7044C24.5114 7.3869 24.546 7.05671 24.546 6.71776C24.546 4.23518 22.6936 2.22266 20.4086 2.22266C18.1236 2.22266 16.2712 4.23518 16.2712 6.71776C16.2712 7.27746 16.3654 7.81326 16.5374 8.3075ZM20.4402 16.4515C19.9887 16.1266 15.9265 13.2581 12.3236 12.5836C11.8279 12.4119 11.2904 12.3179 10.729 12.3179C8.23998 12.3179 6.22223 14.1655 6.22223 16.4446C6.22223 18.7236 8.23998 20.5712 10.729 20.5712C11.0678 20.5712 11.3979 20.537 11.7154 20.4721C15.2852 20.0581 19.5579 17.1364 20.3515 16.5747C19.7878 17.3671 16.859 21.6284 16.4442 25.1885C16.3793 25.5049 16.345 25.8339 16.345 26.1715C16.345 28.6541 18.1974 30.6666 20.4824 30.6666C22.7674 30.6666 24.6197 28.6541 24.6197 26.1715C24.6197 25.6111 24.5253 25.0745 24.3529 24.5797C23.7089 21.1614 21.0755 17.3292 20.5404 16.5767C21.3406 17.1429 25.6079 20.0587 29.1739 20.4722C29.4913 20.5371 29.8214 20.5714 30.1603 20.5714C32.6493 20.5714 34.6671 18.7238 34.6671 16.4447C34.6671 14.1656 32.6493 12.3181 30.1603 12.3181C29.5989 12.3181 29.0614 12.4121 28.5657 12.5838C24.9651 13.2579 20.9056 16.1232 20.4499 16.451C20.4468 16.4468 20.4452 16.4446 20.4452 16.4446C20.4452 16.4446 20.4435 16.4469 20.4402 16.4515Z" fill="url(#paint0_radial_2001_13)"/>
</g>
<defs>
<filter id="filter0_d_2001_13" x="0.888896" y="0.444878" width="39.1115" height="39.1105" filterUnits="userSpaceOnUse" color-interpolation-filters="sRGB">
<feFlood flood-opacity="0" result="BackgroundImageFix"/>
<feColorMatrix in="SourceAlpha" type="matrix" values="0 0 0 0 0 0 0 0 0 0 0 0 0 0 0 0 0 0 127 0" result="hardAlpha"/>
<feOffset dy="3.55556"/>
<feGaussianBlur stdDeviation="2.66667"/>
<feComposite in2="hardAlpha" operator="out"/>
<feColorMatrix type="matrix" values="0 0 0 0 0 0 0 0 0 0 0 0 0 0 0 0 0 0 0.1 0"/>
<feBlend mode="normal" in2="BackgroundImageFix" result="effect1_dropShadow_2001_13"/>
<feBlend mode="normal" in="SourceGraphic" in2="effect1_dropShadow_2001_13" result="shape"/>
</filter>
<radialGradient id="paint0_radial_2001_13" cx="0" cy="0" r="1" gradientUnits="userSpaceOnUse" gradientTransform="translate(20.4446 16.4446) rotate(90) scale(47.6983 47.6998)">
<stop stop-color="white"/>
<stop offset="1" stop-color="white"/>
</radialGradient>
</defs>
</svg>
