<svg width="98" height="36" viewBox="0 0 98 36" fill="none" xmlns="http://www.w3.org/2000/svg">
<g clip-path="url(#clip0_1_1195)">
<g clip-path="url(#clip1_1_1195)">
<g clip-path="url(#clip2_1_1195)">
<path d="M27.7235 21.0967L27.7208 21.1006L24.3699 26.0012L24.3689 26.0028L21.0624 30.8578L21.0599 30.8615L18.2219 34.9481H16.4597L22.7099 25.8764L22.712 25.8733L24.4294 23.3602L24.9093 22.6578L24.2929 22.0714L22.5787 20.4407L2.49385 1.01H4.55984L21.1884 17.1035L21.1909 17.106L24.4928 20.3243L24.8235 20.6549L25.6768 21.5079L26.3567 20.5112L31.2958 13.2699L31.8786 12.4372L32.0085 12.2516L32.0458 12.0282C32.084 11.7988 32.1158 11.6476 32.1757 11.4678L32.1816 11.4501L32.1868 11.4322C32.9182 8.93037 34.4937 6.78538 36.5915 5.41228L36.5982 5.40793L36.6047 5.40348C37.7769 4.60941 39.1526 4.07069 40.6231 3.79982L40.6262 3.79923C41.2177 3.68831 41.8228 3.64881 42.4524 3.64881H43.4524V3.60693H59.2539V5.04157H57.903V4.9578H56.903H42.4524C40.9063 4.9578 39.4477 5.33316 38.1324 6.03666C35.6981 7.30282 33.8651 9.64613 33.3445 12.4709C33.3432 12.4773 33.3419 12.4838 33.3406 12.4905C33.3047 12.6692 33.2512 12.9353 33.2436 13.2209C33.2009 13.5944 33.2009 13.9231 33.2009 14.2308V14.2512C33.2009 14.9705 33.2971 15.6301 33.4325 16.2619L33.4325 16.2619L33.4346 16.2716C34.3636 20.4054 38.0094 23.4881 42.3739 23.5439V24.8948C39.5107 24.8625 36.8781 23.682 34.9918 21.7956C33.9167 20.7206 33.0804 19.4641 32.5476 18.0246L32.427 17.6628L32.3014 17.2859L31.6682 15.3857L30.5298 17.0337L27.7235 21.0967Z" fill="#253359" stroke="white" stroke-width="2"/>
<path d="M95.2459 34.8567L93.8097 34.9535L85.3354 22.3632L85.0446 21.9313L84.524 21.9218L63.4415 21.537L64.4542 20.0801L82.1792 20.4867L84.1109 20.531L83.0315 18.9284L71.9737 2.50907L71.1456 1.27942L70.3156 2.50786L52.3465 29.1054L52.3158 29.1509L52.2902 29.1995C51.9155 29.9116 51.4179 30.6056 50.8574 31.2865C49.4114 32.9969 47.3896 34.2202 45.0922 34.7187C44.3685 34.8709 43.6008 34.9481 42.8294 34.9481H24.9053L25.7496 33.5973H42.8294C47.3423 33.5973 51.0925 30.3552 51.9363 26.0895L51.9392 26.0747L51.9417 26.0598C52.0246 25.5624 52.1227 24.9417 52.1227 24.3457C52.1227 23.6264 52.0265 22.9669 51.8911 22.3351L51.8908 22.3336C51.0364 18.3763 47.5699 15.3318 43.4105 15.0705V13.7168C46.1227 13.8613 48.5402 15.0118 50.3273 16.7967C51.7968 18.3064 52.8592 20.1812 53.2379 22.3015L53.6742 24.7448L55.0537 22.6815L69.5424 1.01H71.1443H72.7449L85.4746 20.125L85.4749 20.1254L87.735 23.5156L87.7367 23.5181L95.2459 34.8567Z" fill="#253359" stroke="white" stroke-width="2"/>
</g>
</g>
</g>
<defs>
<clipPath id="clip0_1_1195">
<rect width="97.19" height="35.98" fill="white" transform="translate(0 0.0100021)"/>
</clipPath>
<clipPath id="clip1_1_1195">
<rect width="97.19" height="35.98" fill="white" transform="translate(0 0.0100021)"/>
</clipPath>
<clipPath id="clip2_1_1195">
<rect width="97.146" height="35.98" fill="white" transform="translate(0.0219727 0.0100021)"/>
</clipPath>
</defs>
</svg>
